G04 #@! TF.GenerationSoftware,KiCad,Pcbnew,(6.0.8)*
G04 #@! TF.CreationDate,2023-04-27T21:46:55-06:00*
G04 #@! TF.ProjectId,Hydro,48796472-6f2e-46b6-9963-61645f706362,rev?*
G04 #@! TF.SameCoordinates,Original*
G04 #@! TF.FileFunction,Legend,Top*
G04 #@! TF.FilePolarity,Positive*
%FSLAX46Y46*%
G04 Gerber Fmt 4.6, Leading zero omitted, Abs format (unit mm)*
G04 Created by KiCad (PCBNEW (6.0.8)) date 2023-04-27 21:46:55*
%MOMM*%
%LPD*%
G01*
G04 APERTURE LIST*
%ADD10C,0.300000*%
%ADD11C,0.150000*%
%ADD12C,0.120000*%
%ADD13C,0.127000*%
%ADD14C,0.010000*%
%ADD15C,0.200000*%
G04 APERTURE END LIST*
D10*
X201243857Y-85409571D02*
X201529571Y-85409571D01*
X201672428Y-85481000D01*
X201815285Y-85623857D01*
X201886714Y-85909571D01*
X201886714Y-86409571D01*
X201815285Y-86695285D01*
X201672428Y-86838142D01*
X201529571Y-86909571D01*
X201243857Y-86909571D01*
X201101000Y-86838142D01*
X200958142Y-86695285D01*
X200886714Y-86409571D01*
X200886714Y-85909571D01*
X200958142Y-85623857D01*
X201101000Y-85481000D01*
X201243857Y-85409571D01*
X202529571Y-86909571D02*
X202529571Y-85409571D01*
X203172428Y-86909571D02*
X203172428Y-86123857D01*
X203101000Y-85981000D01*
X202958142Y-85909571D01*
X202743857Y-85909571D01*
X202601000Y-85981000D01*
X202529571Y-86052428D01*
X203886714Y-86766714D02*
X203958142Y-86838142D01*
X203886714Y-86909571D01*
X203815285Y-86838142D01*
X203886714Y-86766714D01*
X203886714Y-86909571D01*
X200958142Y-89324571D02*
X200958142Y-87824571D01*
X201458142Y-88896000D01*
X201958142Y-87824571D01*
X201958142Y-89324571D01*
X202529571Y-88324571D02*
X202886714Y-89324571D01*
X203243857Y-88324571D02*
X202886714Y-89324571D01*
X202743857Y-89681714D01*
X202672428Y-89753142D01*
X202529571Y-89824571D01*
X203815285Y-89181714D02*
X203886714Y-89253142D01*
X203815285Y-89324571D01*
X203743857Y-89253142D01*
X203815285Y-89181714D01*
X203815285Y-89324571D01*
X201743857Y-90311000D02*
X201601000Y-90239571D01*
X201386714Y-90239571D01*
X201172428Y-90311000D01*
X201029571Y-90453857D01*
X200958142Y-90596714D01*
X200886714Y-90882428D01*
X200886714Y-91096714D01*
X200958142Y-91382428D01*
X201029571Y-91525285D01*
X201172428Y-91668142D01*
X201386714Y-91739571D01*
X201529571Y-91739571D01*
X201743857Y-91668142D01*
X201815285Y-91596714D01*
X201815285Y-91096714D01*
X201529571Y-91096714D01*
X202672428Y-91739571D02*
X202529571Y-91668142D01*
X202458142Y-91596714D01*
X202386714Y-91453857D01*
X202386714Y-91025285D01*
X202458142Y-90882428D01*
X202529571Y-90811000D01*
X202672428Y-90739571D01*
X202886714Y-90739571D01*
X203029571Y-90811000D01*
X203101000Y-90882428D01*
X203172428Y-91025285D01*
X203172428Y-91453857D01*
X203101000Y-91596714D01*
X203029571Y-91668142D01*
X202886714Y-91739571D01*
X202672428Y-91739571D01*
X204458142Y-91739571D02*
X204458142Y-90239571D01*
X204458142Y-91668142D02*
X204315285Y-91739571D01*
X204029571Y-91739571D01*
X203886714Y-91668142D01*
X203815285Y-91596714D01*
X203743857Y-91453857D01*
X203743857Y-91025285D01*
X203815285Y-90882428D01*
X203886714Y-90811000D01*
X204029571Y-90739571D01*
X204315285Y-90739571D01*
X204458142Y-90811000D01*
X205172428Y-91596714D02*
X205243857Y-91668142D01*
X205172428Y-91739571D01*
X205101000Y-91668142D01*
X205172428Y-91596714D01*
X205172428Y-91739571D01*
X206525339Y-66574785D02*
X206436053Y-67289071D01*
X206123553Y-65789071D02*
X206525339Y-66574785D01*
X207123553Y-65789071D01*
X207650339Y-67289071D02*
X207516410Y-67217642D01*
X207453910Y-67146214D01*
X207400339Y-67003357D01*
X207453910Y-66574785D01*
X207543196Y-66431928D01*
X207623553Y-66360500D01*
X207775339Y-66289071D01*
X207989625Y-66289071D01*
X208123553Y-66360500D01*
X208186053Y-66431928D01*
X208239625Y-66574785D01*
X208186053Y-67003357D01*
X208096767Y-67146214D01*
X208016410Y-67217642D01*
X207864625Y-67289071D01*
X207650339Y-67289071D01*
X209561053Y-66289071D02*
X209436053Y-67289071D01*
X208918196Y-66289071D02*
X208819982Y-67074785D01*
X208873553Y-67217642D01*
X209007482Y-67289071D01*
X209221767Y-67289071D01*
X209373553Y-67217642D01*
X209453910Y-67146214D01*
X211275339Y-66289071D02*
X211436053Y-67289071D01*
X211811053Y-66574785D01*
X212007482Y-67289071D01*
X212418196Y-66289071D01*
X213507482Y-67289071D02*
X213605696Y-66503357D01*
X213552125Y-66360500D01*
X213418196Y-66289071D01*
X213132482Y-66289071D01*
X212980696Y-66360500D01*
X213516410Y-67217642D02*
X213364625Y-67289071D01*
X213007482Y-67289071D01*
X212873553Y-67217642D01*
X212819982Y-67074785D01*
X212837839Y-66931928D01*
X212927125Y-66789071D01*
X213078910Y-66717642D01*
X213436053Y-66717642D01*
X213587839Y-66646214D01*
X214132482Y-66289071D02*
X214703910Y-66289071D01*
X214409267Y-65789071D02*
X214248553Y-67074785D01*
X214302125Y-67217642D01*
X214436053Y-67289071D01*
X214578910Y-67289071D01*
X215659267Y-67217642D02*
X215507482Y-67289071D01*
X215221767Y-67289071D01*
X215087839Y-67217642D01*
X215034267Y-67074785D01*
X215105696Y-66503357D01*
X215194982Y-66360500D01*
X215346767Y-66289071D01*
X215632482Y-66289071D01*
X215766410Y-66360500D01*
X215819982Y-66503357D01*
X215802125Y-66646214D01*
X215069982Y-66789071D01*
X216364625Y-67289071D02*
X216489625Y-66289071D01*
X216453910Y-66574785D02*
X216543196Y-66431928D01*
X216623553Y-66360500D01*
X216775339Y-66289071D01*
X216918196Y-66289071D01*
X205364625Y-69704071D02*
X205489625Y-68704071D01*
X205471767Y-68846928D02*
X205552125Y-68775500D01*
X205703910Y-68704071D01*
X205918196Y-68704071D01*
X206052125Y-68775500D01*
X206105696Y-68918357D01*
X206007482Y-69704071D01*
X206105696Y-68918357D02*
X206194982Y-68775500D01*
X206346767Y-68704071D01*
X206561053Y-68704071D01*
X206694982Y-68775500D01*
X206748553Y-68918357D01*
X206650339Y-69704071D01*
X207346767Y-68704071D02*
X207578910Y-69704071D01*
X208061053Y-68704071D02*
X207578910Y-69704071D01*
X207391410Y-70061214D01*
X207311053Y-70132642D01*
X207159267Y-70204071D01*
X209775339Y-68704071D02*
X209587839Y-70204071D01*
X209766410Y-68775500D02*
X209918196Y-68704071D01*
X210203910Y-68704071D01*
X210337839Y-68775500D01*
X210400339Y-68846928D01*
X210453910Y-68989785D01*
X210400339Y-69418357D01*
X210311053Y-69561214D01*
X210230696Y-69632642D01*
X210078910Y-69704071D01*
X209793196Y-69704071D01*
X209659267Y-69632642D01*
X211221767Y-69704071D02*
X211087839Y-69632642D01*
X211034267Y-69489785D01*
X211194982Y-68204071D01*
X212436053Y-69704071D02*
X212534267Y-68918357D01*
X212480696Y-68775500D01*
X212346767Y-68704071D01*
X212061053Y-68704071D01*
X211909267Y-68775500D01*
X212444982Y-69632642D02*
X212293196Y-69704071D01*
X211936053Y-69704071D01*
X211802125Y-69632642D01*
X211748553Y-69489785D01*
X211766410Y-69346928D01*
X211855696Y-69204071D01*
X212007482Y-69132642D01*
X212364625Y-69132642D01*
X212516410Y-69061214D01*
X213275339Y-68704071D02*
X213150339Y-69704071D01*
X213257482Y-68846928D02*
X213337839Y-68775500D01*
X213489625Y-68704071D01*
X213703910Y-68704071D01*
X213837839Y-68775500D01*
X213891410Y-68918357D01*
X213793196Y-69704071D01*
X214418196Y-68704071D02*
X214989625Y-68704071D01*
X214694982Y-68204071D02*
X214534267Y-69489785D01*
X214587839Y-69632642D01*
X214721767Y-69704071D01*
X214864625Y-69704071D01*
X215302125Y-69632642D02*
X215436053Y-69704071D01*
X215721767Y-69704071D01*
X215873553Y-69632642D01*
X215962839Y-69489785D01*
X215971767Y-69418357D01*
X215918196Y-69275500D01*
X215784267Y-69204071D01*
X215569982Y-69204071D01*
X215436053Y-69132642D01*
X215382482Y-68989785D01*
X215391410Y-68918357D01*
X215480696Y-68775500D01*
X215632482Y-68704071D01*
X215846767Y-68704071D01*
X215980696Y-68775500D01*
X216596767Y-69561214D02*
X216659267Y-69632642D01*
X216578910Y-69704071D01*
X216516410Y-69632642D01*
X216596767Y-69561214D01*
X216578910Y-69704071D01*
X200958142Y-48555571D02*
X200958142Y-47055571D01*
X201458142Y-48127000D01*
X201958142Y-47055571D01*
X201958142Y-48555571D01*
X203315285Y-48555571D02*
X203315285Y-47769857D01*
X203243857Y-47627000D01*
X203101000Y-47555571D01*
X202815285Y-47555571D01*
X202672428Y-47627000D01*
X203315285Y-48484142D02*
X203172428Y-48555571D01*
X202815285Y-48555571D01*
X202672428Y-48484142D01*
X202601000Y-48341285D01*
X202601000Y-48198428D01*
X202672428Y-48055571D01*
X202815285Y-47984142D01*
X203172428Y-47984142D01*
X203315285Y-47912714D01*
X203958142Y-48484142D02*
X204101000Y-48555571D01*
X204386714Y-48555571D01*
X204529571Y-48484142D01*
X204601000Y-48341285D01*
X204601000Y-48269857D01*
X204529571Y-48127000D01*
X204386714Y-48055571D01*
X204172428Y-48055571D01*
X204029571Y-47984142D01*
X203958142Y-47841285D01*
X203958142Y-47769857D01*
X204029571Y-47627000D01*
X204172428Y-47555571D01*
X204386714Y-47555571D01*
X204529571Y-47627000D01*
X205029571Y-47555571D02*
X205601000Y-47555571D01*
X205243857Y-47055571D02*
X205243857Y-48341285D01*
X205315285Y-48484142D01*
X205458142Y-48555571D01*
X205601000Y-48555571D01*
X206672428Y-48484142D02*
X206529571Y-48555571D01*
X206243857Y-48555571D01*
X206101000Y-48484142D01*
X206029571Y-48341285D01*
X206029571Y-47769857D01*
X206101000Y-47627000D01*
X206243857Y-47555571D01*
X206529571Y-47555571D01*
X206672428Y-47627000D01*
X206743857Y-47769857D01*
X206743857Y-47912714D01*
X206029571Y-48055571D01*
X207386714Y-48555571D02*
X207386714Y-47555571D01*
X207386714Y-47841285D02*
X207458142Y-47698428D01*
X207529571Y-47627000D01*
X207672428Y-47555571D01*
X207815285Y-47555571D01*
X208386714Y-48484142D02*
X208386714Y-48555571D01*
X208315285Y-48698428D01*
X208243857Y-48769857D01*
X200815285Y-49970571D02*
X201101000Y-50970571D01*
X201386714Y-50256285D01*
X201672428Y-50970571D01*
X201958142Y-49970571D01*
X202529571Y-50970571D02*
X202529571Y-49470571D01*
X203172428Y-50970571D02*
X203172428Y-50184857D01*
X203101000Y-50042000D01*
X202958142Y-49970571D01*
X202743857Y-49970571D01*
X202601000Y-50042000D01*
X202529571Y-50113428D01*
X204529571Y-50970571D02*
X204529571Y-50184857D01*
X204458142Y-50042000D01*
X204315285Y-49970571D01*
X204029571Y-49970571D01*
X203886714Y-50042000D01*
X204529571Y-50899142D02*
X204386714Y-50970571D01*
X204029571Y-50970571D01*
X203886714Y-50899142D01*
X203815285Y-50756285D01*
X203815285Y-50613428D01*
X203886714Y-50470571D01*
X204029571Y-50399142D01*
X204386714Y-50399142D01*
X204529571Y-50327714D01*
X205029571Y-49970571D02*
X205601000Y-49970571D01*
X205243857Y-49470571D02*
X205243857Y-50756285D01*
X205315285Y-50899142D01*
X205458142Y-50970571D01*
X205601000Y-50970571D01*
X207243857Y-50970571D02*
X207243857Y-49970571D01*
X207243857Y-49470571D02*
X207172428Y-49542000D01*
X207243857Y-49613428D01*
X207315285Y-49542000D01*
X207243857Y-49470571D01*
X207243857Y-49613428D01*
X207886714Y-50899142D02*
X208029571Y-50970571D01*
X208315285Y-50970571D01*
X208458142Y-50899142D01*
X208529571Y-50756285D01*
X208529571Y-50684857D01*
X208458142Y-50542000D01*
X208315285Y-50470571D01*
X208101000Y-50470571D01*
X207958142Y-50399142D01*
X207886714Y-50256285D01*
X207886714Y-50184857D01*
X207958142Y-50042000D01*
X208101000Y-49970571D01*
X208315285Y-49970571D01*
X208458142Y-50042000D01*
X200958142Y-53385571D02*
X200958142Y-52385571D01*
X200958142Y-52528428D02*
X201029571Y-52457000D01*
X201172428Y-52385571D01*
X201386714Y-52385571D01*
X201529571Y-52457000D01*
X201601000Y-52599857D01*
X201601000Y-53385571D01*
X201601000Y-52599857D02*
X201672428Y-52457000D01*
X201815285Y-52385571D01*
X202029571Y-52385571D01*
X202172428Y-52457000D01*
X202243857Y-52599857D01*
X202243857Y-53385571D01*
X202815285Y-52385571D02*
X203172428Y-53385571D01*
X203529571Y-52385571D02*
X203172428Y-53385571D01*
X203029571Y-53742714D01*
X202958142Y-53814142D01*
X202815285Y-53885571D01*
X205243857Y-52385571D02*
X205243857Y-53885571D01*
X205243857Y-52457000D02*
X205386714Y-52385571D01*
X205672428Y-52385571D01*
X205815285Y-52457000D01*
X205886714Y-52528428D01*
X205958142Y-52671285D01*
X205958142Y-53099857D01*
X205886714Y-53242714D01*
X205815285Y-53314142D01*
X205672428Y-53385571D01*
X205386714Y-53385571D01*
X205243857Y-53314142D01*
X207243857Y-52385571D02*
X207243857Y-53385571D01*
X206601000Y-52385571D02*
X206601000Y-53171285D01*
X206672428Y-53314142D01*
X206815285Y-53385571D01*
X207029571Y-53385571D01*
X207172428Y-53314142D01*
X207243857Y-53242714D01*
X207958142Y-53385571D02*
X207958142Y-52385571D01*
X207958142Y-52671285D02*
X208029571Y-52528428D01*
X208101000Y-52457000D01*
X208243857Y-52385571D01*
X208386714Y-52385571D01*
X208886714Y-52385571D02*
X208886714Y-53885571D01*
X208886714Y-52457000D02*
X209029571Y-52385571D01*
X209315285Y-52385571D01*
X209458142Y-52457000D01*
X209529571Y-52528428D01*
X209601000Y-52671285D01*
X209601000Y-53099857D01*
X209529571Y-53242714D01*
X209458142Y-53314142D01*
X209315285Y-53385571D01*
X209029571Y-53385571D01*
X208886714Y-53314142D01*
X210458142Y-53385571D02*
X210315285Y-53314142D01*
X210243857Y-53242714D01*
X210172428Y-53099857D01*
X210172428Y-52671285D01*
X210243857Y-52528428D01*
X210315285Y-52457000D01*
X210458142Y-52385571D01*
X210672428Y-52385571D01*
X210815285Y-52457000D01*
X210886714Y-52528428D01*
X210958142Y-52671285D01*
X210958142Y-53099857D01*
X210886714Y-53242714D01*
X210815285Y-53314142D01*
X210672428Y-53385571D01*
X210458142Y-53385571D01*
X211529571Y-53314142D02*
X211672428Y-53385571D01*
X211958142Y-53385571D01*
X212101000Y-53314142D01*
X212172428Y-53171285D01*
X212172428Y-53099857D01*
X212101000Y-52957000D01*
X211958142Y-52885571D01*
X211743857Y-52885571D01*
X211601000Y-52814142D01*
X211529571Y-52671285D01*
X211529571Y-52599857D01*
X211601000Y-52457000D01*
X211743857Y-52385571D01*
X211958142Y-52385571D01*
X212101000Y-52457000D01*
X213386714Y-53314142D02*
X213243857Y-53385571D01*
X212958142Y-53385571D01*
X212815285Y-53314142D01*
X212743857Y-53171285D01*
X212743857Y-52599857D01*
X212815285Y-52457000D01*
X212958142Y-52385571D01*
X213243857Y-52385571D01*
X213386714Y-52457000D01*
X213458142Y-52599857D01*
X213458142Y-52742714D01*
X212743857Y-52885571D01*
X214315285Y-53242714D02*
X214386714Y-53314142D01*
X214315285Y-53385571D01*
X214243857Y-53314142D01*
X214315285Y-53242714D01*
X214315285Y-53385571D01*
X214029571Y-51957000D02*
X214172428Y-51885571D01*
X214529571Y-51885571D01*
X214672428Y-51957000D01*
X214743857Y-52099857D01*
X214743857Y-52242714D01*
X214672428Y-52385571D01*
X214601000Y-52457000D01*
X214458142Y-52528428D01*
X214386714Y-52599857D01*
X214315285Y-52742714D01*
X214315285Y-52814142D01*
X113506571Y-95420571D02*
X112649428Y-95420571D01*
X113078000Y-95420571D02*
X113078000Y-93920571D01*
X112935142Y-94134857D01*
X112792285Y-94277714D01*
X112649428Y-94349142D01*
X114078000Y-94063428D02*
X114149428Y-93992000D01*
X114292285Y-93920571D01*
X114649428Y-93920571D01*
X114792285Y-93992000D01*
X114863714Y-94063428D01*
X114935142Y-94206285D01*
X114935142Y-94349142D01*
X114863714Y-94563428D01*
X114006571Y-95420571D01*
X114935142Y-95420571D01*
X115435142Y-94420571D02*
X115792285Y-95420571D01*
X116149428Y-94420571D01*
X117863714Y-95420571D02*
X117863714Y-93920571D01*
X118578000Y-95420571D02*
X118578000Y-93920571D01*
X119435142Y-95420571D01*
X119435142Y-93920571D01*
X187535428Y-44596285D02*
X187321142Y-44310571D01*
X187535428Y-44024857D01*
X188892571Y-42382000D02*
X187392571Y-42382000D01*
X187392571Y-41810571D01*
X187464000Y-41667714D01*
X187535428Y-41596285D01*
X187678285Y-41524857D01*
X187892571Y-41524857D01*
X188035428Y-41596285D01*
X188106857Y-41667714D01*
X188178285Y-41810571D01*
X188178285Y-42382000D01*
X188892571Y-40239142D02*
X188106857Y-40239142D01*
X187964000Y-40310571D01*
X187892571Y-40453428D01*
X187892571Y-40739142D01*
X187964000Y-40882000D01*
X188821142Y-40239142D02*
X188892571Y-40382000D01*
X188892571Y-40739142D01*
X188821142Y-40882000D01*
X188678285Y-40953428D01*
X188535428Y-40953428D01*
X188392571Y-40882000D01*
X188321142Y-40739142D01*
X188321142Y-40382000D01*
X188249714Y-40239142D01*
X188892571Y-39524857D02*
X187892571Y-39524857D01*
X188178285Y-39524857D02*
X188035428Y-39453428D01*
X187964000Y-39382000D01*
X187892571Y-39239142D01*
X187892571Y-39096285D01*
X187892571Y-38810571D02*
X187892571Y-38239142D01*
X187392571Y-38596285D02*
X188678285Y-38596285D01*
X188821142Y-38524857D01*
X188892571Y-38382000D01*
X188892571Y-38239142D01*
X188892571Y-35810571D02*
X188892571Y-36667714D01*
X188892571Y-36239142D02*
X187392571Y-36239142D01*
X187606857Y-36382000D01*
X187749714Y-36524857D01*
X187821142Y-36667714D01*
X176613428Y-44596285D02*
X176399142Y-44310571D01*
X176613428Y-44024857D01*
X177970571Y-42382000D02*
X176470571Y-42382000D01*
X176470571Y-41810571D01*
X176542000Y-41667714D01*
X176613428Y-41596285D01*
X176756285Y-41524857D01*
X176970571Y-41524857D01*
X177113428Y-41596285D01*
X177184857Y-41667714D01*
X177256285Y-41810571D01*
X177256285Y-42382000D01*
X177970571Y-40239142D02*
X177184857Y-40239142D01*
X177042000Y-40310571D01*
X176970571Y-40453428D01*
X176970571Y-40739142D01*
X177042000Y-40882000D01*
X177899142Y-40239142D02*
X177970571Y-40382000D01*
X177970571Y-40739142D01*
X177899142Y-40882000D01*
X177756285Y-40953428D01*
X177613428Y-40953428D01*
X177470571Y-40882000D01*
X177399142Y-40739142D01*
X177399142Y-40382000D01*
X177327714Y-40239142D01*
X177970571Y-39524857D02*
X176970571Y-39524857D01*
X177256285Y-39524857D02*
X177113428Y-39453428D01*
X177042000Y-39382000D01*
X176970571Y-39239142D01*
X176970571Y-39096285D01*
X176970571Y-38810571D02*
X176970571Y-38239142D01*
X176470571Y-38596285D02*
X177756285Y-38596285D01*
X177899142Y-38524857D01*
X177970571Y-38382000D01*
X177970571Y-38239142D01*
X176613428Y-36667714D02*
X176542000Y-36596285D01*
X176470571Y-36453428D01*
X176470571Y-36096285D01*
X176542000Y-35953428D01*
X176613428Y-35882000D01*
X176756285Y-35810571D01*
X176899142Y-35810571D01*
X177113428Y-35882000D01*
X177970571Y-36739142D01*
X177970571Y-35810571D01*
X147682000Y-98492571D02*
X148539142Y-98492571D01*
X148110571Y-99992571D02*
X148110571Y-98492571D01*
X149610571Y-99921142D02*
X149467714Y-99992571D01*
X149182000Y-99992571D01*
X149039142Y-99921142D01*
X148967714Y-99778285D01*
X148967714Y-99206857D01*
X149039142Y-99064000D01*
X149182000Y-98992571D01*
X149467714Y-98992571D01*
X149610571Y-99064000D01*
X149682000Y-99206857D01*
X149682000Y-99349714D01*
X148967714Y-99492571D01*
X150324857Y-99992571D02*
X150324857Y-98992571D01*
X150324857Y-99135428D02*
X150396285Y-99064000D01*
X150539142Y-98992571D01*
X150753428Y-98992571D01*
X150896285Y-99064000D01*
X150967714Y-99206857D01*
X150967714Y-99992571D01*
X150967714Y-99206857D02*
X151039142Y-99064000D01*
X151182000Y-98992571D01*
X151396285Y-98992571D01*
X151539142Y-99064000D01*
X151610571Y-99206857D01*
X151610571Y-99992571D01*
X152324857Y-98992571D02*
X152324857Y-100492571D01*
X152324857Y-99064000D02*
X152467714Y-98992571D01*
X152753428Y-98992571D01*
X152896285Y-99064000D01*
X152967714Y-99135428D01*
X153039142Y-99278285D01*
X153039142Y-99706857D01*
X152967714Y-99849714D01*
X152896285Y-99921142D01*
X152753428Y-99992571D01*
X152467714Y-99992571D01*
X152324857Y-99921142D01*
X154253428Y-99921142D02*
X154110571Y-99992571D01*
X153824857Y-99992571D01*
X153682000Y-99921142D01*
X153610571Y-99778285D01*
X153610571Y-99206857D01*
X153682000Y-99064000D01*
X153824857Y-98992571D01*
X154110571Y-98992571D01*
X154253428Y-99064000D01*
X154324857Y-99206857D01*
X154324857Y-99349714D01*
X153610571Y-99492571D01*
X154967714Y-99992571D02*
X154967714Y-98992571D01*
X154967714Y-99278285D02*
X155039142Y-99135428D01*
X155110571Y-99064000D01*
X155253428Y-98992571D01*
X155396285Y-98992571D01*
X156539142Y-99992571D02*
X156539142Y-99206857D01*
X156467714Y-99064000D01*
X156324857Y-98992571D01*
X156039142Y-98992571D01*
X155896285Y-99064000D01*
X156539142Y-99921142D02*
X156396285Y-99992571D01*
X156039142Y-99992571D01*
X155896285Y-99921142D01*
X155824857Y-99778285D01*
X155824857Y-99635428D01*
X155896285Y-99492571D01*
X156039142Y-99421142D01*
X156396285Y-99421142D01*
X156539142Y-99349714D01*
X157039142Y-98992571D02*
X157610571Y-98992571D01*
X157253428Y-98492571D02*
X157253428Y-99778285D01*
X157324857Y-99921142D01*
X157467714Y-99992571D01*
X157610571Y-99992571D01*
X158753428Y-98992571D02*
X158753428Y-99992571D01*
X158110571Y-98992571D02*
X158110571Y-99778285D01*
X158182000Y-99921142D01*
X158324857Y-99992571D01*
X158539142Y-99992571D01*
X158682000Y-99921142D01*
X158753428Y-99849714D01*
X159467714Y-99992571D02*
X159467714Y-98992571D01*
X159467714Y-99278285D02*
X159539142Y-99135428D01*
X159610571Y-99064000D01*
X159753428Y-98992571D01*
X159896285Y-98992571D01*
X160967714Y-99921142D02*
X160824857Y-99992571D01*
X160539142Y-99992571D01*
X160396285Y-99921142D01*
X160324857Y-99778285D01*
X160324857Y-99206857D01*
X160396285Y-99064000D01*
X160539142Y-98992571D01*
X160824857Y-98992571D01*
X160967714Y-99064000D01*
X161039142Y-99206857D01*
X161039142Y-99349714D01*
X160324857Y-99492571D01*
X132925428Y-47441714D02*
X132711142Y-47156000D01*
X132925428Y-46870285D01*
X133282571Y-45227428D02*
X134782571Y-45227428D01*
X133354000Y-45227428D02*
X133282571Y-45084571D01*
X133282571Y-44798857D01*
X133354000Y-44656000D01*
X133425428Y-44584571D01*
X133568285Y-44513142D01*
X133996857Y-44513142D01*
X134139714Y-44584571D01*
X134211142Y-44656000D01*
X134282571Y-44798857D01*
X134282571Y-45084571D01*
X134211142Y-45227428D01*
X134282571Y-43870285D02*
X132782571Y-43870285D01*
X133496857Y-43870285D02*
X133496857Y-43013142D01*
X134282571Y-43013142D02*
X132782571Y-43013142D01*
X134282571Y-41156000D02*
X132782571Y-41156000D01*
X132782571Y-40798857D01*
X132854000Y-40584571D01*
X132996857Y-40441714D01*
X133139714Y-40370285D01*
X133425428Y-40298857D01*
X133639714Y-40298857D01*
X133925428Y-40370285D01*
X134068285Y-40441714D01*
X134211142Y-40584571D01*
X134282571Y-40798857D01*
X134282571Y-41156000D01*
X134282571Y-39441714D02*
X134211142Y-39584571D01*
X134139714Y-39656000D01*
X133996857Y-39727428D01*
X133568285Y-39727428D01*
X133425428Y-39656000D01*
X133354000Y-39584571D01*
X133282571Y-39441714D01*
X133282571Y-39227428D01*
X133354000Y-39084571D01*
X133425428Y-39013142D01*
X133568285Y-38941714D01*
X133996857Y-38941714D01*
X134139714Y-39013142D01*
X134211142Y-39084571D01*
X134282571Y-39227428D01*
X134282571Y-39441714D01*
X133282571Y-38441714D02*
X134282571Y-38156000D01*
X133568285Y-37870285D01*
X134282571Y-37584571D01*
X133282571Y-37298857D01*
X133282571Y-36727428D02*
X134282571Y-36727428D01*
X133425428Y-36727428D02*
X133354000Y-36656000D01*
X133282571Y-36513142D01*
X133282571Y-36298857D01*
X133354000Y-36156000D01*
X133496857Y-36084571D01*
X134282571Y-36084571D01*
X134274857Y-98738571D02*
X134274857Y-100238571D01*
X134274857Y-98810000D02*
X134417714Y-98738571D01*
X134703428Y-98738571D01*
X134846285Y-98810000D01*
X134917714Y-98881428D01*
X134989142Y-99024285D01*
X134989142Y-99452857D01*
X134917714Y-99595714D01*
X134846285Y-99667142D01*
X134703428Y-99738571D01*
X134417714Y-99738571D01*
X134274857Y-99667142D01*
X135632000Y-99738571D02*
X135632000Y-98238571D01*
X135632000Y-98952857D02*
X136489142Y-98952857D01*
X136489142Y-99738571D02*
X136489142Y-98238571D01*
X183916571Y-98492571D02*
X184773714Y-98492571D01*
X184345142Y-99992571D02*
X184345142Y-98492571D01*
X185916571Y-99992571D02*
X185916571Y-99206857D01*
X185845142Y-99064000D01*
X185702285Y-98992571D01*
X185416571Y-98992571D01*
X185273714Y-99064000D01*
X185916571Y-99921142D02*
X185773714Y-99992571D01*
X185416571Y-99992571D01*
X185273714Y-99921142D01*
X185202285Y-99778285D01*
X185202285Y-99635428D01*
X185273714Y-99492571D01*
X185416571Y-99421142D01*
X185773714Y-99421142D01*
X185916571Y-99349714D01*
X186630857Y-98992571D02*
X186630857Y-99992571D01*
X186630857Y-99135428D02*
X186702285Y-99064000D01*
X186845142Y-98992571D01*
X187059428Y-98992571D01*
X187202285Y-99064000D01*
X187273714Y-99206857D01*
X187273714Y-99992571D01*
X187988000Y-99992571D02*
X187988000Y-98492571D01*
X188130857Y-99421142D02*
X188559428Y-99992571D01*
X188559428Y-98992571D02*
X187988000Y-99564000D01*
X191059428Y-99992571D02*
X190345142Y-99992571D01*
X190345142Y-98492571D01*
X192130857Y-99921142D02*
X191988000Y-99992571D01*
X191702285Y-99992571D01*
X191559428Y-99921142D01*
X191488000Y-99778285D01*
X191488000Y-99206857D01*
X191559428Y-99064000D01*
X191702285Y-98992571D01*
X191988000Y-98992571D01*
X192130857Y-99064000D01*
X192202285Y-99206857D01*
X192202285Y-99349714D01*
X191488000Y-99492571D01*
X192702285Y-98992571D02*
X193059428Y-99992571D01*
X193416571Y-98992571D01*
X194559428Y-99921142D02*
X194416571Y-99992571D01*
X194130857Y-99992571D01*
X193988000Y-99921142D01*
X193916571Y-99778285D01*
X193916571Y-99206857D01*
X193988000Y-99064000D01*
X194130857Y-98992571D01*
X194416571Y-98992571D01*
X194559428Y-99064000D01*
X194630857Y-99206857D01*
X194630857Y-99349714D01*
X193916571Y-99492571D01*
X195488000Y-99992571D02*
X195345142Y-99921142D01*
X195273714Y-99778285D01*
X195273714Y-98492571D01*
X154769428Y-49636285D02*
X154555142Y-49350571D01*
X154769428Y-49064857D01*
X155983714Y-46564857D02*
X156055142Y-46636285D01*
X156126571Y-46850571D01*
X156126571Y-46993428D01*
X156055142Y-47207714D01*
X155912285Y-47350571D01*
X155769428Y-47422000D01*
X155483714Y-47493428D01*
X155269428Y-47493428D01*
X154983714Y-47422000D01*
X154840857Y-47350571D01*
X154698000Y-47207714D01*
X154626571Y-46993428D01*
X154626571Y-46850571D01*
X154698000Y-46636285D01*
X154769428Y-46564857D01*
X156126571Y-45922000D02*
X155126571Y-45922000D01*
X154626571Y-45922000D02*
X154698000Y-45993428D01*
X154769428Y-45922000D01*
X154698000Y-45850571D01*
X154626571Y-45922000D01*
X154769428Y-45922000D01*
X156126571Y-45207714D02*
X155126571Y-45207714D01*
X155412285Y-45207714D02*
X155269428Y-45136285D01*
X155198000Y-45064857D01*
X155126571Y-44922000D01*
X155126571Y-44779142D01*
X156055142Y-43636285D02*
X156126571Y-43779142D01*
X156126571Y-44064857D01*
X156055142Y-44207714D01*
X155983714Y-44279142D01*
X155840857Y-44350571D01*
X155412285Y-44350571D01*
X155269428Y-44279142D01*
X155198000Y-44207714D01*
X155126571Y-44064857D01*
X155126571Y-43779142D01*
X155198000Y-43636285D01*
X155126571Y-42350571D02*
X156126571Y-42350571D01*
X155126571Y-42993428D02*
X155912285Y-42993428D01*
X156055142Y-42922000D01*
X156126571Y-42779142D01*
X156126571Y-42564857D01*
X156055142Y-42422000D01*
X155983714Y-42350571D01*
X156126571Y-41422000D02*
X156055142Y-41564857D01*
X155912285Y-41636285D01*
X154626571Y-41636285D01*
X156126571Y-40207714D02*
X155340857Y-40207714D01*
X155198000Y-40279142D01*
X155126571Y-40422000D01*
X155126571Y-40707714D01*
X155198000Y-40850571D01*
X156055142Y-40207714D02*
X156126571Y-40350571D01*
X156126571Y-40707714D01*
X156055142Y-40850571D01*
X155912285Y-40922000D01*
X155769428Y-40922000D01*
X155626571Y-40850571D01*
X155555142Y-40707714D01*
X155555142Y-40350571D01*
X155483714Y-40207714D01*
X155126571Y-39707714D02*
X155126571Y-39136285D01*
X154626571Y-39493428D02*
X155912285Y-39493428D01*
X156055142Y-39422000D01*
X156126571Y-39279142D01*
X156126571Y-39136285D01*
X156126571Y-38636285D02*
X155126571Y-38636285D01*
X154626571Y-38636285D02*
X154698000Y-38707714D01*
X154769428Y-38636285D01*
X154698000Y-38564857D01*
X154626571Y-38636285D01*
X154769428Y-38636285D01*
X156126571Y-37707714D02*
X156055142Y-37850571D01*
X155983714Y-37922000D01*
X155840857Y-37993428D01*
X155412285Y-37993428D01*
X155269428Y-37922000D01*
X155198000Y-37850571D01*
X155126571Y-37707714D01*
X155126571Y-37493428D01*
X155198000Y-37350571D01*
X155269428Y-37279142D01*
X155412285Y-37207714D01*
X155840857Y-37207714D01*
X155983714Y-37279142D01*
X156055142Y-37350571D01*
X156126571Y-37493428D01*
X156126571Y-37707714D01*
X155126571Y-36564857D02*
X156126571Y-36564857D01*
X155269428Y-36564857D02*
X155198000Y-36493428D01*
X155126571Y-36350571D01*
X155126571Y-36136285D01*
X155198000Y-35993428D01*
X155340857Y-35922000D01*
X156126571Y-35922000D01*
X152812857Y-95166571D02*
X151955714Y-95166571D01*
X152384285Y-95166571D02*
X152384285Y-93666571D01*
X152241428Y-93880857D01*
X152098571Y-94023714D01*
X151955714Y-94095142D01*
X153384285Y-93809428D02*
X153455714Y-93738000D01*
X153598571Y-93666571D01*
X153955714Y-93666571D01*
X154098571Y-93738000D01*
X154170000Y-93809428D01*
X154241428Y-93952285D01*
X154241428Y-94095142D01*
X154170000Y-94309428D01*
X153312857Y-95166571D01*
X154241428Y-95166571D01*
X154741428Y-94166571D02*
X155098571Y-95166571D01*
X155455714Y-94166571D01*
X143847428Y-44235142D02*
X143633142Y-43949428D01*
X143847428Y-43663714D01*
X144204571Y-42020857D02*
X145704571Y-42020857D01*
X144276000Y-42020857D02*
X144204571Y-41878000D01*
X144204571Y-41592285D01*
X144276000Y-41449428D01*
X144347428Y-41378000D01*
X144490285Y-41306571D01*
X144918857Y-41306571D01*
X145061714Y-41378000D01*
X145133142Y-41449428D01*
X145204571Y-41592285D01*
X145204571Y-41878000D01*
X145133142Y-42020857D01*
X145204571Y-40663714D02*
X143704571Y-40663714D01*
X144418857Y-40663714D02*
X144418857Y-39806571D01*
X145204571Y-39806571D02*
X143704571Y-39806571D01*
X143704571Y-37949428D02*
X144918857Y-37949428D01*
X145061714Y-37878000D01*
X145133142Y-37806571D01*
X145204571Y-37663714D01*
X145204571Y-37378000D01*
X145133142Y-37235142D01*
X145061714Y-37163714D01*
X144918857Y-37092285D01*
X143704571Y-37092285D01*
X144204571Y-36378000D02*
X145704571Y-36378000D01*
X144276000Y-36378000D02*
X144204571Y-36235142D01*
X144204571Y-35949428D01*
X144276000Y-35806571D01*
X144347428Y-35735142D01*
X144490285Y-35663714D01*
X144918857Y-35663714D01*
X145061714Y-35735142D01*
X145133142Y-35806571D01*
X145204571Y-35949428D01*
X145204571Y-36235142D01*
X145133142Y-36378000D01*
X122003428Y-44092285D02*
X121789142Y-43806571D01*
X122003428Y-43520857D01*
X123360571Y-41163714D02*
X123360571Y-41878000D01*
X121860571Y-41878000D01*
X123360571Y-40663714D02*
X122360571Y-40663714D01*
X121860571Y-40663714D02*
X121932000Y-40735142D01*
X122003428Y-40663714D01*
X121932000Y-40592285D01*
X121860571Y-40663714D01*
X122003428Y-40663714D01*
X122360571Y-39306571D02*
X123574857Y-39306571D01*
X123717714Y-39378000D01*
X123789142Y-39449428D01*
X123860571Y-39592285D01*
X123860571Y-39806571D01*
X123789142Y-39949428D01*
X123289142Y-39306571D02*
X123360571Y-39449428D01*
X123360571Y-39735142D01*
X123289142Y-39878000D01*
X123217714Y-39949428D01*
X123074857Y-40020857D01*
X122646285Y-40020857D01*
X122503428Y-39949428D01*
X122432000Y-39878000D01*
X122360571Y-39735142D01*
X122360571Y-39449428D01*
X122432000Y-39306571D01*
X123360571Y-38592285D02*
X121860571Y-38592285D01*
X123360571Y-37949428D02*
X122574857Y-37949428D01*
X122432000Y-38020857D01*
X122360571Y-38163714D01*
X122360571Y-38378000D01*
X122432000Y-38520857D01*
X122503428Y-38592285D01*
X122360571Y-37449428D02*
X122360571Y-36878000D01*
X121860571Y-37235142D02*
X123146285Y-37235142D01*
X123289142Y-37163714D01*
X123360571Y-37020857D01*
X123360571Y-36878000D01*
X123289142Y-36449428D02*
X123360571Y-36306571D01*
X123360571Y-36020857D01*
X123289142Y-35878000D01*
X123146285Y-35806571D01*
X123074857Y-35806571D01*
X122932000Y-35878000D01*
X122860571Y-36020857D01*
X122860571Y-36235142D01*
X122789142Y-36378000D01*
X122646285Y-36449428D01*
X122574857Y-36449428D01*
X122432000Y-36378000D01*
X122360571Y-36235142D01*
X122360571Y-36020857D01*
X122432000Y-35878000D01*
X165691428Y-44596285D02*
X165477142Y-44310571D01*
X165691428Y-44024857D01*
X167048571Y-42382000D02*
X165548571Y-42382000D01*
X165548571Y-41810571D01*
X165620000Y-41667714D01*
X165691428Y-41596285D01*
X165834285Y-41524857D01*
X166048571Y-41524857D01*
X166191428Y-41596285D01*
X166262857Y-41667714D01*
X166334285Y-41810571D01*
X166334285Y-42382000D01*
X167048571Y-40239142D02*
X166262857Y-40239142D01*
X166120000Y-40310571D01*
X166048571Y-40453428D01*
X166048571Y-40739142D01*
X166120000Y-40882000D01*
X166977142Y-40239142D02*
X167048571Y-40382000D01*
X167048571Y-40739142D01*
X166977142Y-40882000D01*
X166834285Y-40953428D01*
X166691428Y-40953428D01*
X166548571Y-40882000D01*
X166477142Y-40739142D01*
X166477142Y-40382000D01*
X166405714Y-40239142D01*
X167048571Y-39524857D02*
X166048571Y-39524857D01*
X166334285Y-39524857D02*
X166191428Y-39453428D01*
X166120000Y-39382000D01*
X166048571Y-39239142D01*
X166048571Y-39096285D01*
X166048571Y-38810571D02*
X166048571Y-38239142D01*
X165548571Y-38596285D02*
X166834285Y-38596285D01*
X166977142Y-38524857D01*
X167048571Y-38382000D01*
X167048571Y-38239142D01*
X165548571Y-36739142D02*
X165548571Y-35810571D01*
X166120000Y-36310571D01*
X166120000Y-36096285D01*
X166191428Y-35953428D01*
X166262857Y-35882000D01*
X166405714Y-35810571D01*
X166762857Y-35810571D01*
X166905714Y-35882000D01*
X166977142Y-35953428D01*
X167048571Y-36096285D01*
X167048571Y-36524857D01*
X166977142Y-36667714D01*
X166905714Y-36739142D01*
X171140571Y-99206857D02*
X171640571Y-99206857D01*
X171854857Y-99992571D02*
X171140571Y-99992571D01*
X171140571Y-98492571D01*
X171854857Y-98492571D01*
X173354857Y-99849714D02*
X173283428Y-99921142D01*
X173069142Y-99992571D01*
X172926285Y-99992571D01*
X172712000Y-99921142D01*
X172569142Y-99778285D01*
X172497714Y-99635428D01*
X172426285Y-99349714D01*
X172426285Y-99135428D01*
X172497714Y-98849714D01*
X172569142Y-98706857D01*
X172712000Y-98564000D01*
X172926285Y-98492571D01*
X173069142Y-98492571D01*
X173283428Y-98564000D01*
X173354857Y-98635428D01*
D11*
G04 #@! TO.C,U3*
X218852523Y-46687380D02*
X218376333Y-46687380D01*
X218328714Y-47163571D01*
X218376333Y-47115952D01*
X218471571Y-47068333D01*
X218709666Y-47068333D01*
X218804904Y-47115952D01*
X218852523Y-47163571D01*
X218900142Y-47258809D01*
X218900142Y-47496904D01*
X218852523Y-47592142D01*
X218804904Y-47639761D01*
X218709666Y-47687380D01*
X218471571Y-47687380D01*
X218376333Y-47639761D01*
X218328714Y-47592142D01*
X219185857Y-46687380D02*
X219519190Y-47687380D01*
X219852523Y-46687380D01*
X218304904Y-52767380D02*
X218304904Y-51767380D01*
X218543000Y-51767380D01*
X218685857Y-51815000D01*
X218781095Y-51910238D01*
X218828714Y-52005476D01*
X218876333Y-52195952D01*
X218876333Y-52338809D01*
X218828714Y-52529285D01*
X218781095Y-52624523D01*
X218685857Y-52719761D01*
X218543000Y-52767380D01*
X218304904Y-52767380D01*
X219209666Y-51767380D02*
X219828714Y-51767380D01*
X219495380Y-52148333D01*
X219638238Y-52148333D01*
X219733476Y-52195952D01*
X219781095Y-52243571D01*
X219828714Y-52338809D01*
X219828714Y-52576904D01*
X219781095Y-52672142D01*
X219733476Y-52719761D01*
X219638238Y-52767380D01*
X219352523Y-52767380D01*
X219257285Y-52719761D01*
X219209666Y-52672142D01*
X218233476Y-82247380D02*
X218852523Y-82247380D01*
X218519190Y-82628333D01*
X218662047Y-82628333D01*
X218757285Y-82675952D01*
X218804904Y-82723571D01*
X218852523Y-82818809D01*
X218852523Y-83056904D01*
X218804904Y-83152142D01*
X218757285Y-83199761D01*
X218662047Y-83247380D01*
X218376333Y-83247380D01*
X218281095Y-83199761D01*
X218233476Y-83152142D01*
X219709666Y-82580714D02*
X219709666Y-83247380D01*
X219471571Y-82199761D02*
X219233476Y-82914047D01*
X219852523Y-82914047D01*
X198556333Y-83247380D02*
X198223000Y-82771190D01*
X197984904Y-83247380D02*
X197984904Y-82247380D01*
X198365857Y-82247380D01*
X198461095Y-82295000D01*
X198508714Y-82342619D01*
X198556333Y-82437857D01*
X198556333Y-82580714D01*
X198508714Y-82675952D01*
X198461095Y-82723571D01*
X198365857Y-82771190D01*
X197984904Y-82771190D01*
X198889666Y-82247380D02*
X199556333Y-83247380D01*
X199556333Y-82247380D02*
X198889666Y-83247380D01*
X198532523Y-75627380D02*
X197961095Y-75627380D01*
X198246809Y-75627380D02*
X198246809Y-74627380D01*
X198151571Y-74770238D01*
X198056333Y-74865476D01*
X197961095Y-74913095D01*
X199008714Y-75627380D02*
X199199190Y-75627380D01*
X199294428Y-75579761D01*
X199342047Y-75532142D01*
X199437285Y-75389285D01*
X199484904Y-75198809D01*
X199484904Y-74817857D01*
X199437285Y-74722619D01*
X199389666Y-74675000D01*
X199294428Y-74627380D01*
X199103952Y-74627380D01*
X199008714Y-74675000D01*
X198961095Y-74722619D01*
X198913476Y-74817857D01*
X198913476Y-75055952D01*
X198961095Y-75151190D01*
X199008714Y-75198809D01*
X199103952Y-75246428D01*
X199294428Y-75246428D01*
X199389666Y-75198809D01*
X199437285Y-75151190D01*
X199484904Y-75055952D01*
X218304904Y-55307380D02*
X218304904Y-54307380D01*
X218543000Y-54307380D01*
X218685857Y-54355000D01*
X218781095Y-54450238D01*
X218828714Y-54545476D01*
X218876333Y-54735952D01*
X218876333Y-54878809D01*
X218828714Y-55069285D01*
X218781095Y-55164523D01*
X218685857Y-55259761D01*
X218543000Y-55307380D01*
X218304904Y-55307380D01*
X219257285Y-54402619D02*
X219304904Y-54355000D01*
X219400142Y-54307380D01*
X219638238Y-54307380D01*
X219733476Y-54355000D01*
X219781095Y-54402619D01*
X219828714Y-54497857D01*
X219828714Y-54593095D01*
X219781095Y-54735952D01*
X219209666Y-55307380D01*
X219828714Y-55307380D01*
X218852523Y-57847380D02*
X218281095Y-57847380D01*
X218566809Y-57847380D02*
X218566809Y-56847380D01*
X218471571Y-56990238D01*
X218376333Y-57085476D01*
X218281095Y-57133095D01*
X219185857Y-56847380D02*
X219804904Y-56847380D01*
X219471571Y-57228333D01*
X219614428Y-57228333D01*
X219709666Y-57275952D01*
X219757285Y-57323571D01*
X219804904Y-57418809D01*
X219804904Y-57656904D01*
X219757285Y-57752142D01*
X219709666Y-57799761D01*
X219614428Y-57847380D01*
X219328714Y-57847380D01*
X219233476Y-57799761D01*
X219185857Y-57752142D01*
X197961095Y-77215000D02*
X197865857Y-77167380D01*
X197723000Y-77167380D01*
X197580142Y-77215000D01*
X197484904Y-77310238D01*
X197437285Y-77405476D01*
X197389666Y-77595952D01*
X197389666Y-77738809D01*
X197437285Y-77929285D01*
X197484904Y-78024523D01*
X197580142Y-78119761D01*
X197723000Y-78167380D01*
X197818238Y-78167380D01*
X197961095Y-78119761D01*
X198008714Y-78072142D01*
X198008714Y-77738809D01*
X197818238Y-77738809D01*
X198437285Y-78167380D02*
X198437285Y-77167380D01*
X199008714Y-78167380D01*
X199008714Y-77167380D01*
X199484904Y-78167380D02*
X199484904Y-77167380D01*
X199723000Y-77167380D01*
X199865857Y-77215000D01*
X199961095Y-77310238D01*
X200008714Y-77405476D01*
X200056333Y-77595952D01*
X200056333Y-77738809D01*
X200008714Y-77929285D01*
X199961095Y-78024523D01*
X199865857Y-78119761D01*
X199723000Y-78167380D01*
X199484904Y-78167380D01*
X198532523Y-55307380D02*
X197961095Y-55307380D01*
X198246809Y-55307380D02*
X198246809Y-54307380D01*
X198151571Y-54450238D01*
X198056333Y-54545476D01*
X197961095Y-54593095D01*
X199437285Y-54307380D02*
X198961095Y-54307380D01*
X198913476Y-54783571D01*
X198961095Y-54735952D01*
X199056333Y-54688333D01*
X199294428Y-54688333D01*
X199389666Y-54735952D01*
X199437285Y-54783571D01*
X199484904Y-54878809D01*
X199484904Y-55116904D01*
X199437285Y-55212142D01*
X199389666Y-55259761D01*
X199294428Y-55307380D01*
X199056333Y-55307380D01*
X198961095Y-55259761D01*
X198913476Y-55212142D01*
X198437285Y-56942619D02*
X198484904Y-56895000D01*
X198580142Y-56847380D01*
X198818238Y-56847380D01*
X198913476Y-56895000D01*
X198961095Y-56942619D01*
X199008714Y-57037857D01*
X199008714Y-57133095D01*
X198961095Y-57275952D01*
X198389666Y-57847380D01*
X199008714Y-57847380D01*
X198532523Y-68007380D02*
X197961095Y-68007380D01*
X198246809Y-68007380D02*
X198246809Y-67007380D01*
X198151571Y-67150238D01*
X198056333Y-67245476D01*
X197961095Y-67293095D01*
X198865857Y-67007380D02*
X199532523Y-67007380D01*
X199103952Y-68007380D01*
X197961095Y-84787380D02*
X198532523Y-84787380D01*
X198246809Y-85787380D02*
X198246809Y-84787380D01*
X198770619Y-84787380D02*
X199437285Y-85787380D01*
X199437285Y-84787380D02*
X198770619Y-85787380D01*
X218852523Y-62927380D02*
X218281095Y-62927380D01*
X218566809Y-62927380D02*
X218566809Y-61927380D01*
X218471571Y-62070238D01*
X218376333Y-62165476D01*
X218281095Y-62213095D01*
X219233476Y-62022619D02*
X219281095Y-61975000D01*
X219376333Y-61927380D01*
X219614428Y-61927380D01*
X219709666Y-61975000D01*
X219757285Y-62022619D01*
X219804904Y-62117857D01*
X219804904Y-62213095D01*
X219757285Y-62355952D01*
X219185857Y-62927380D01*
X219804904Y-62927380D01*
X218281095Y-69642619D02*
X218328714Y-69595000D01*
X218423952Y-69547380D01*
X218662047Y-69547380D01*
X218757285Y-69595000D01*
X218804904Y-69642619D01*
X218852523Y-69737857D01*
X218852523Y-69833095D01*
X218804904Y-69975952D01*
X218233476Y-70547380D01*
X218852523Y-70547380D01*
X219709666Y-69547380D02*
X219519190Y-69547380D01*
X219423952Y-69595000D01*
X219376333Y-69642619D01*
X219281095Y-69785476D01*
X219233476Y-69975952D01*
X219233476Y-70356904D01*
X219281095Y-70452142D01*
X219328714Y-70499761D01*
X219423952Y-70547380D01*
X219614428Y-70547380D01*
X219709666Y-70499761D01*
X219757285Y-70452142D01*
X219804904Y-70356904D01*
X219804904Y-70118809D01*
X219757285Y-70023571D01*
X219709666Y-69975952D01*
X219614428Y-69928333D01*
X219423952Y-69928333D01*
X219328714Y-69975952D01*
X219281095Y-70023571D01*
X219233476Y-70118809D01*
X198532523Y-73087380D02*
X197961095Y-73087380D01*
X198246809Y-73087380D02*
X198246809Y-72087380D01*
X198151571Y-72230238D01*
X198056333Y-72325476D01*
X197961095Y-72373095D01*
X199103952Y-72515952D02*
X199008714Y-72468333D01*
X198961095Y-72420714D01*
X198913476Y-72325476D01*
X198913476Y-72277857D01*
X198961095Y-72182619D01*
X199008714Y-72135000D01*
X199103952Y-72087380D01*
X199294428Y-72087380D01*
X199389666Y-72135000D01*
X199437285Y-72182619D01*
X199484904Y-72277857D01*
X199484904Y-72325476D01*
X199437285Y-72420714D01*
X199389666Y-72468333D01*
X199294428Y-72515952D01*
X199103952Y-72515952D01*
X199008714Y-72563571D01*
X198961095Y-72611190D01*
X198913476Y-72706428D01*
X198913476Y-72896904D01*
X198961095Y-72992142D01*
X199008714Y-73039761D01*
X199103952Y-73087380D01*
X199294428Y-73087380D01*
X199389666Y-73039761D01*
X199437285Y-72992142D01*
X199484904Y-72896904D01*
X199484904Y-72706428D01*
X199437285Y-72611190D01*
X199389666Y-72563571D01*
X199294428Y-72515952D01*
X217804904Y-92407380D02*
X218423952Y-92407380D01*
X218090619Y-92788333D01*
X218233476Y-92788333D01*
X218328714Y-92835952D01*
X218376333Y-92883571D01*
X218423952Y-92978809D01*
X218423952Y-93216904D01*
X218376333Y-93312142D01*
X218328714Y-93359761D01*
X218233476Y-93407380D01*
X217947761Y-93407380D01*
X217852523Y-93359761D01*
X217804904Y-93312142D01*
X218709666Y-92407380D02*
X219043000Y-93407380D01*
X219376333Y-92407380D01*
X219614428Y-92407380D02*
X220233476Y-92407380D01*
X219900142Y-92788333D01*
X220043000Y-92788333D01*
X220138238Y-92835952D01*
X220185857Y-92883571D01*
X220233476Y-92978809D01*
X220233476Y-93216904D01*
X220185857Y-93312142D01*
X220138238Y-93359761D01*
X220043000Y-93407380D01*
X219757285Y-93407380D01*
X219662047Y-93359761D01*
X219614428Y-93312142D01*
X197961095Y-87422619D02*
X198008714Y-87375000D01*
X198103952Y-87327380D01*
X198342047Y-87327380D01*
X198437285Y-87375000D01*
X198484904Y-87422619D01*
X198532523Y-87517857D01*
X198532523Y-87613095D01*
X198484904Y-87755952D01*
X197913476Y-88327380D01*
X198532523Y-88327380D01*
X198913476Y-87422619D02*
X198961095Y-87375000D01*
X199056333Y-87327380D01*
X199294428Y-87327380D01*
X199389666Y-87375000D01*
X199437285Y-87422619D01*
X199484904Y-87517857D01*
X199484904Y-87613095D01*
X199437285Y-87755952D01*
X198865857Y-88327380D01*
X199484904Y-88327380D01*
X218281095Y-59435000D02*
X218185857Y-59387380D01*
X218043000Y-59387380D01*
X217900142Y-59435000D01*
X217804904Y-59530238D01*
X217757285Y-59625476D01*
X217709666Y-59815952D01*
X217709666Y-59958809D01*
X217757285Y-60149285D01*
X217804904Y-60244523D01*
X217900142Y-60339761D01*
X218043000Y-60387380D01*
X218138238Y-60387380D01*
X218281095Y-60339761D01*
X218328714Y-60292142D01*
X218328714Y-59958809D01*
X218138238Y-59958809D01*
X218757285Y-60387380D02*
X218757285Y-59387380D01*
X219328714Y-60387380D01*
X219328714Y-59387380D01*
X219804904Y-60387380D02*
X219804904Y-59387380D01*
X220043000Y-59387380D01*
X220185857Y-59435000D01*
X220281095Y-59530238D01*
X220328714Y-59625476D01*
X220376333Y-59815952D01*
X220376333Y-59958809D01*
X220328714Y-60149285D01*
X220281095Y-60244523D01*
X220185857Y-60339761D01*
X220043000Y-60387380D01*
X219804904Y-60387380D01*
X218233476Y-74627380D02*
X218852523Y-74627380D01*
X218519190Y-75008333D01*
X218662047Y-75008333D01*
X218757285Y-75055952D01*
X218804904Y-75103571D01*
X218852523Y-75198809D01*
X218852523Y-75436904D01*
X218804904Y-75532142D01*
X218757285Y-75579761D01*
X218662047Y-75627380D01*
X218376333Y-75627380D01*
X218281095Y-75579761D01*
X218233476Y-75532142D01*
X219185857Y-74627380D02*
X219804904Y-74627380D01*
X219471571Y-75008333D01*
X219614428Y-75008333D01*
X219709666Y-75055952D01*
X219757285Y-75103571D01*
X219804904Y-75198809D01*
X219804904Y-75436904D01*
X219757285Y-75532142D01*
X219709666Y-75579761D01*
X219614428Y-75627380D01*
X219328714Y-75627380D01*
X219233476Y-75579761D01*
X219185857Y-75532142D01*
X218281095Y-67102619D02*
X218328714Y-67055000D01*
X218423952Y-67007380D01*
X218662047Y-67007380D01*
X218757285Y-67055000D01*
X218804904Y-67102619D01*
X218852523Y-67197857D01*
X218852523Y-67293095D01*
X218804904Y-67435952D01*
X218233476Y-68007380D01*
X218852523Y-68007380D01*
X219185857Y-67007380D02*
X219852523Y-67007380D01*
X219423952Y-68007380D01*
X198913476Y-62260714D02*
X198913476Y-62927380D01*
X198675380Y-61879761D02*
X198437285Y-62594047D01*
X199056333Y-62594047D01*
X197961095Y-89962619D02*
X198008714Y-89915000D01*
X198103952Y-89867380D01*
X198342047Y-89867380D01*
X198437285Y-89915000D01*
X198484904Y-89962619D01*
X198532523Y-90057857D01*
X198532523Y-90153095D01*
X198484904Y-90295952D01*
X197913476Y-90867380D01*
X198532523Y-90867380D01*
X198865857Y-89867380D02*
X199484904Y-89867380D01*
X199151571Y-90248333D01*
X199294428Y-90248333D01*
X199389666Y-90295952D01*
X199437285Y-90343571D01*
X199484904Y-90438809D01*
X199484904Y-90676904D01*
X199437285Y-90772142D01*
X199389666Y-90819761D01*
X199294428Y-90867380D01*
X199008714Y-90867380D01*
X198913476Y-90819761D01*
X198865857Y-90772142D01*
X198127761Y-47592142D02*
X198080142Y-47639761D01*
X197937285Y-47687380D01*
X197842047Y-47687380D01*
X197699190Y-47639761D01*
X197603952Y-47544523D01*
X197556333Y-47449285D01*
X197508714Y-47258809D01*
X197508714Y-47115952D01*
X197556333Y-46925476D01*
X197603952Y-46830238D01*
X197699190Y-46735000D01*
X197842047Y-46687380D01*
X197937285Y-46687380D01*
X198080142Y-46735000D01*
X198127761Y-46782619D01*
X199032523Y-47687380D02*
X198556333Y-47687380D01*
X198556333Y-46687380D01*
X199365857Y-47687380D02*
X199365857Y-46687380D01*
X199937285Y-47687380D02*
X199508714Y-47115952D01*
X199937285Y-46687380D02*
X199365857Y-47258809D01*
X197961095Y-79802619D02*
X198008714Y-79755000D01*
X198103952Y-79707380D01*
X198342047Y-79707380D01*
X198437285Y-79755000D01*
X198484904Y-79802619D01*
X198532523Y-79897857D01*
X198532523Y-79993095D01*
X198484904Y-80135952D01*
X197913476Y-80707380D01*
X198532523Y-80707380D01*
X199484904Y-80707380D02*
X198913476Y-80707380D01*
X199199190Y-80707380D02*
X199199190Y-79707380D01*
X199103952Y-79850238D01*
X199008714Y-79945476D01*
X198913476Y-79993095D01*
X218233476Y-77167380D02*
X218852523Y-77167380D01*
X218519190Y-77548333D01*
X218662047Y-77548333D01*
X218757285Y-77595952D01*
X218804904Y-77643571D01*
X218852523Y-77738809D01*
X218852523Y-77976904D01*
X218804904Y-78072142D01*
X218757285Y-78119761D01*
X218662047Y-78167380D01*
X218376333Y-78167380D01*
X218281095Y-78119761D01*
X218233476Y-78072142D01*
X219233476Y-77262619D02*
X219281095Y-77215000D01*
X219376333Y-77167380D01*
X219614428Y-77167380D01*
X219709666Y-77215000D01*
X219757285Y-77262619D01*
X219804904Y-77357857D01*
X219804904Y-77453095D01*
X219757285Y-77595952D01*
X219185857Y-78167380D01*
X219804904Y-78167380D01*
X218281095Y-50132142D02*
X218233476Y-50179761D01*
X218090619Y-50227380D01*
X217995380Y-50227380D01*
X217852523Y-50179761D01*
X217757285Y-50084523D01*
X217709666Y-49989285D01*
X217662047Y-49798809D01*
X217662047Y-49655952D01*
X217709666Y-49465476D01*
X217757285Y-49370238D01*
X217852523Y-49275000D01*
X217995380Y-49227380D01*
X218090619Y-49227380D01*
X218233476Y-49275000D01*
X218281095Y-49322619D01*
X218709666Y-50227380D02*
X218709666Y-49227380D01*
X219043000Y-49941666D01*
X219376333Y-49227380D01*
X219376333Y-50227380D01*
X219852523Y-50227380D02*
X219852523Y-49227380D01*
X220090619Y-49227380D01*
X220233476Y-49275000D01*
X220328714Y-49370238D01*
X220376333Y-49465476D01*
X220423952Y-49655952D01*
X220423952Y-49798809D01*
X220376333Y-49989285D01*
X220328714Y-50084523D01*
X220233476Y-50179761D01*
X220090619Y-50227380D01*
X219852523Y-50227380D01*
X218209666Y-87327380D02*
X218543000Y-88327380D01*
X218876333Y-87327380D01*
X219209666Y-88327380D02*
X219209666Y-87327380D01*
X219590619Y-87327380D01*
X219685857Y-87375000D01*
X219733476Y-87422619D01*
X219781095Y-87517857D01*
X219781095Y-87660714D01*
X219733476Y-87755952D01*
X219685857Y-87803571D01*
X219590619Y-87851190D01*
X219209666Y-87851190D01*
X218304904Y-90343571D02*
X218638238Y-90343571D01*
X218781095Y-90867380D02*
X218304904Y-90867380D01*
X218304904Y-89867380D01*
X218781095Y-89867380D01*
X219209666Y-90867380D02*
X219209666Y-89867380D01*
X219781095Y-90867380D01*
X219781095Y-89867380D01*
X197961095Y-92455000D02*
X197865857Y-92407380D01*
X197723000Y-92407380D01*
X197580142Y-92455000D01*
X197484904Y-92550238D01*
X197437285Y-92645476D01*
X197389666Y-92835952D01*
X197389666Y-92978809D01*
X197437285Y-93169285D01*
X197484904Y-93264523D01*
X197580142Y-93359761D01*
X197723000Y-93407380D01*
X197818238Y-93407380D01*
X197961095Y-93359761D01*
X198008714Y-93312142D01*
X198008714Y-92978809D01*
X197818238Y-92978809D01*
X198437285Y-93407380D02*
X198437285Y-92407380D01*
X199008714Y-93407380D01*
X199008714Y-92407380D01*
X199484904Y-93407380D02*
X199484904Y-92407380D01*
X199723000Y-92407380D01*
X199865857Y-92455000D01*
X199961095Y-92550238D01*
X200008714Y-92645476D01*
X200056333Y-92835952D01*
X200056333Y-92978809D01*
X200008714Y-93169285D01*
X199961095Y-93264523D01*
X199865857Y-93359761D01*
X199723000Y-93407380D01*
X199484904Y-93407380D01*
X197984904Y-52767380D02*
X197984904Y-51767380D01*
X198223000Y-51767380D01*
X198365857Y-51815000D01*
X198461095Y-51910238D01*
X198508714Y-52005476D01*
X198556333Y-52195952D01*
X198556333Y-52338809D01*
X198508714Y-52529285D01*
X198461095Y-52624523D01*
X198365857Y-52719761D01*
X198223000Y-52767380D01*
X197984904Y-52767380D01*
X199508714Y-52767380D02*
X198937285Y-52767380D01*
X199223000Y-52767380D02*
X199223000Y-51767380D01*
X199127761Y-51910238D01*
X199032523Y-52005476D01*
X198937285Y-52053095D01*
X198675380Y-59387380D02*
X198770619Y-59387380D01*
X198865857Y-59435000D01*
X198913476Y-59482619D01*
X198961095Y-59577857D01*
X199008714Y-59768333D01*
X199008714Y-60006428D01*
X198961095Y-60196904D01*
X198913476Y-60292142D01*
X198865857Y-60339761D01*
X198770619Y-60387380D01*
X198675380Y-60387380D01*
X198580142Y-60339761D01*
X198532523Y-60292142D01*
X198484904Y-60196904D01*
X198437285Y-60006428D01*
X198437285Y-59768333D01*
X198484904Y-59577857D01*
X198532523Y-59482619D01*
X198580142Y-59435000D01*
X198675380Y-59387380D01*
X218281095Y-72182619D02*
X218328714Y-72135000D01*
X218423952Y-72087380D01*
X218662047Y-72087380D01*
X218757285Y-72135000D01*
X218804904Y-72182619D01*
X218852523Y-72277857D01*
X218852523Y-72373095D01*
X218804904Y-72515952D01*
X218233476Y-73087380D01*
X218852523Y-73087380D01*
X219757285Y-72087380D02*
X219281095Y-72087380D01*
X219233476Y-72563571D01*
X219281095Y-72515952D01*
X219376333Y-72468333D01*
X219614428Y-72468333D01*
X219709666Y-72515952D01*
X219757285Y-72563571D01*
X219804904Y-72658809D01*
X219804904Y-72896904D01*
X219757285Y-72992142D01*
X219709666Y-73039761D01*
X219614428Y-73087380D01*
X219376333Y-73087380D01*
X219281095Y-73039761D01*
X219233476Y-72992142D01*
X198532523Y-65467380D02*
X197961095Y-65467380D01*
X198246809Y-65467380D02*
X198246809Y-64467380D01*
X198151571Y-64610238D01*
X198056333Y-64705476D01*
X197961095Y-64753095D01*
X199389666Y-64467380D02*
X199199190Y-64467380D01*
X199103952Y-64515000D01*
X199056333Y-64562619D01*
X198961095Y-64705476D01*
X198913476Y-64895952D01*
X198913476Y-65276904D01*
X198961095Y-65372142D01*
X199008714Y-65419761D01*
X199103952Y-65467380D01*
X199294428Y-65467380D01*
X199389666Y-65419761D01*
X199437285Y-65372142D01*
X199484904Y-65276904D01*
X199484904Y-65038809D01*
X199437285Y-64943571D01*
X199389666Y-64895952D01*
X199294428Y-64848333D01*
X199103952Y-64848333D01*
X199008714Y-64895952D01*
X198961095Y-64943571D01*
X198913476Y-65038809D01*
X198961095Y-69547380D02*
X198484904Y-69547380D01*
X198437285Y-70023571D01*
X198484904Y-69975952D01*
X198580142Y-69928333D01*
X198818238Y-69928333D01*
X198913476Y-69975952D01*
X198961095Y-70023571D01*
X199008714Y-70118809D01*
X199008714Y-70356904D01*
X198961095Y-70452142D01*
X198913476Y-70499761D01*
X198818238Y-70547380D01*
X198580142Y-70547380D01*
X198484904Y-70499761D01*
X198437285Y-70452142D01*
X218233476Y-79707380D02*
X218852523Y-79707380D01*
X218519190Y-80088333D01*
X218662047Y-80088333D01*
X218757285Y-80135952D01*
X218804904Y-80183571D01*
X218852523Y-80278809D01*
X218852523Y-80516904D01*
X218804904Y-80612142D01*
X218757285Y-80659761D01*
X218662047Y-80707380D01*
X218376333Y-80707380D01*
X218281095Y-80659761D01*
X218233476Y-80612142D01*
X219757285Y-79707380D02*
X219281095Y-79707380D01*
X219233476Y-80183571D01*
X219281095Y-80135952D01*
X219376333Y-80088333D01*
X219614428Y-80088333D01*
X219709666Y-80135952D01*
X219757285Y-80183571D01*
X219804904Y-80278809D01*
X219804904Y-80516904D01*
X219757285Y-80612142D01*
X219709666Y-80659761D01*
X219614428Y-80707380D01*
X219376333Y-80707380D01*
X219281095Y-80659761D01*
X219233476Y-80612142D01*
X218185857Y-84787380D02*
X218519190Y-85787380D01*
X218852523Y-84787380D01*
X219185857Y-85787380D02*
X219185857Y-84787380D01*
X219757285Y-85787380D01*
X219757285Y-84787380D01*
X197984904Y-50227380D02*
X197984904Y-49227380D01*
X198223000Y-49227380D01*
X198365857Y-49275000D01*
X198461095Y-49370238D01*
X198508714Y-49465476D01*
X198556333Y-49655952D01*
X198556333Y-49798809D01*
X198508714Y-49989285D01*
X198461095Y-50084523D01*
X198365857Y-50179761D01*
X198223000Y-50227380D01*
X197984904Y-50227380D01*
X199175380Y-49227380D02*
X199270619Y-49227380D01*
X199365857Y-49275000D01*
X199413476Y-49322619D01*
X199461095Y-49417857D01*
X199508714Y-49608333D01*
X199508714Y-49846428D01*
X199461095Y-50036904D01*
X199413476Y-50132142D01*
X199365857Y-50179761D01*
X199270619Y-50227380D01*
X199175380Y-50227380D01*
X199080142Y-50179761D01*
X199032523Y-50132142D01*
X198984904Y-50036904D01*
X198937285Y-49846428D01*
X198937285Y-49608333D01*
X198984904Y-49417857D01*
X199032523Y-49322619D01*
X199080142Y-49275000D01*
X199175380Y-49227380D01*
X218852523Y-65467380D02*
X218281095Y-65467380D01*
X218566809Y-65467380D02*
X218566809Y-64467380D01*
X218471571Y-64610238D01*
X218376333Y-64705476D01*
X218281095Y-64753095D01*
X219709666Y-64800714D02*
X219709666Y-65467380D01*
X219471571Y-64419761D02*
X219233476Y-65134047D01*
X219852523Y-65134047D01*
G04 #@! TO.C,U5*
X150677714Y-81176761D02*
X150820571Y-81224380D01*
X151058666Y-81224380D01*
X151153904Y-81176761D01*
X151201523Y-81129142D01*
X151249142Y-81033904D01*
X151249142Y-80938666D01*
X151201523Y-80843428D01*
X151153904Y-80795809D01*
X151058666Y-80748190D01*
X150868190Y-80700571D01*
X150772952Y-80652952D01*
X150725333Y-80605333D01*
X150677714Y-80510095D01*
X150677714Y-80414857D01*
X150725333Y-80319619D01*
X150772952Y-80272000D01*
X150868190Y-80224380D01*
X151106285Y-80224380D01*
X151249142Y-80272000D01*
X151677714Y-81224380D02*
X151677714Y-80224380D01*
X151915809Y-80224380D01*
X152058666Y-80272000D01*
X152153904Y-80367238D01*
X152201523Y-80462476D01*
X152249142Y-80652952D01*
X152249142Y-80795809D01*
X152201523Y-80986285D01*
X152153904Y-81081523D01*
X152058666Y-81176761D01*
X151915809Y-81224380D01*
X151677714Y-81224380D01*
X152630095Y-80938666D02*
X153106285Y-80938666D01*
X152534857Y-81224380D02*
X152868190Y-80224380D01*
X153201523Y-81224380D01*
X150701523Y-83716761D02*
X150844380Y-83764380D01*
X151082476Y-83764380D01*
X151177714Y-83716761D01*
X151225333Y-83669142D01*
X151272952Y-83573904D01*
X151272952Y-83478666D01*
X151225333Y-83383428D01*
X151177714Y-83335809D01*
X151082476Y-83288190D01*
X150892000Y-83240571D01*
X150796761Y-83192952D01*
X150749142Y-83145333D01*
X150701523Y-83050095D01*
X150701523Y-82954857D01*
X150749142Y-82859619D01*
X150796761Y-82812000D01*
X150892000Y-82764380D01*
X151130095Y-82764380D01*
X151272952Y-82812000D01*
X152272952Y-83669142D02*
X152225333Y-83716761D01*
X152082476Y-83764380D01*
X151987238Y-83764380D01*
X151844380Y-83716761D01*
X151749142Y-83621523D01*
X151701523Y-83526285D01*
X151653904Y-83335809D01*
X151653904Y-83192952D01*
X151701523Y-83002476D01*
X151749142Y-82907238D01*
X151844380Y-82812000D01*
X151987238Y-82764380D01*
X152082476Y-82764380D01*
X152225333Y-82812000D01*
X152272952Y-82859619D01*
X153177714Y-83764380D02*
X152701523Y-83764380D01*
X152701523Y-82764380D01*
X151130095Y-87892000D02*
X151034857Y-87844380D01*
X150892000Y-87844380D01*
X150749142Y-87892000D01*
X150653904Y-87987238D01*
X150606285Y-88082476D01*
X150558666Y-88272952D01*
X150558666Y-88415809D01*
X150606285Y-88606285D01*
X150653904Y-88701523D01*
X150749142Y-88796761D01*
X150892000Y-88844380D01*
X150987238Y-88844380D01*
X151130095Y-88796761D01*
X151177714Y-88749142D01*
X151177714Y-88415809D01*
X150987238Y-88415809D01*
X151606285Y-88844380D02*
X151606285Y-87844380D01*
X152177714Y-88844380D01*
X152177714Y-87844380D01*
X152653904Y-88844380D02*
X152653904Y-87844380D01*
X152892000Y-87844380D01*
X153034857Y-87892000D01*
X153130095Y-87987238D01*
X153177714Y-88082476D01*
X153225333Y-88272952D01*
X153225333Y-88415809D01*
X153177714Y-88606285D01*
X153130095Y-88701523D01*
X153034857Y-88796761D01*
X152892000Y-88844380D01*
X152653904Y-88844380D01*
X150558666Y-85304380D02*
X150892000Y-86304380D01*
X151225333Y-85304380D01*
X152130095Y-86209142D02*
X152082476Y-86256761D01*
X151939619Y-86304380D01*
X151844380Y-86304380D01*
X151701523Y-86256761D01*
X151606285Y-86161523D01*
X151558666Y-86066285D01*
X151511047Y-85875809D01*
X151511047Y-85732952D01*
X151558666Y-85542476D01*
X151606285Y-85447238D01*
X151701523Y-85352000D01*
X151844380Y-85304380D01*
X151939619Y-85304380D01*
X152082476Y-85352000D01*
X152130095Y-85399619D01*
X153130095Y-86209142D02*
X153082476Y-86256761D01*
X152939619Y-86304380D01*
X152844380Y-86304380D01*
X152701523Y-86256761D01*
X152606285Y-86161523D01*
X152558666Y-86066285D01*
X152511047Y-85875809D01*
X152511047Y-85732952D01*
X152558666Y-85542476D01*
X152606285Y-85447238D01*
X152701523Y-85352000D01*
X152844380Y-85304380D01*
X152939619Y-85304380D01*
X153082476Y-85352000D01*
X153130095Y-85399619D01*
D12*
G04 #@! TO.C,R9*
X216312000Y-73518000D02*
X214472000Y-73518000D01*
X214472000Y-73518000D02*
X214472000Y-77358000D01*
X216312000Y-77358000D02*
X216312000Y-73518000D01*
X215392000Y-72568000D02*
X215392000Y-73518000D01*
X214472000Y-77358000D02*
X216312000Y-77358000D01*
X215392000Y-78308000D02*
X215392000Y-77358000D01*
D13*
G04 #@! TO.C,Q3*
X124206000Y-53467000D02*
X123952000Y-53721000D01*
X124206000Y-53467000D02*
X127127000Y-53340000D01*
X123952000Y-63119000D02*
X124206000Y-63373000D01*
X123952000Y-63119000D02*
X123952000Y-53721000D01*
X127127000Y-63500000D02*
X124206000Y-63373000D01*
X124815600Y-53924200D02*
G75*
G03*
X124815600Y-53924200I-254000J0D01*
G01*
G36*
X127508000Y-54991000D02*
G01*
X126999350Y-54991000D01*
X126999350Y-53083280D01*
X127508000Y-53083280D01*
X127508000Y-54991000D01*
G37*
D14*
X127508000Y-54991000D02*
X126999350Y-54991000D01*
X126999350Y-53083280D01*
X127508000Y-53083280D01*
X127508000Y-54991000D01*
G36*
X127508000Y-57531000D02*
G01*
X126998040Y-57531000D01*
X126998040Y-56766460D01*
X127508000Y-56766460D01*
X127508000Y-57531000D01*
G37*
X127508000Y-57531000D02*
X126998040Y-57531000D01*
X126998040Y-56766460D01*
X127508000Y-56766460D01*
X127508000Y-57531000D01*
G36*
X128270000Y-63754000D02*
G01*
X127507081Y-63754000D01*
X127507081Y-53079560D01*
X128270000Y-53079560D01*
X128270000Y-63754000D01*
G37*
X128270000Y-63754000D02*
X127507081Y-63754000D01*
X127507081Y-53079560D01*
X128270000Y-53079560D01*
X128270000Y-63754000D01*
G36*
X127508000Y-63754000D02*
G01*
X126999040Y-63754000D01*
X126999040Y-61851580D01*
X127508000Y-61851580D01*
X127508000Y-63754000D01*
G37*
X127508000Y-63754000D02*
X126999040Y-63754000D01*
X126999040Y-61851580D01*
X127508000Y-61851580D01*
X127508000Y-63754000D01*
G36*
X127508000Y-60071000D02*
G01*
X126999000Y-60071000D01*
X126999000Y-59309697D01*
X127508000Y-59309697D01*
X127508000Y-60071000D01*
G37*
X127508000Y-60071000D02*
X126999000Y-60071000D01*
X126999000Y-59309697D01*
X127508000Y-59309697D01*
X127508000Y-60071000D01*
D12*
G04 #@! TO.C,J1*
X154164450Y-51257200D02*
X154164450Y-35610800D01*
X146061850Y-35610800D02*
X146061850Y-51257200D01*
X154164450Y-35610800D02*
X146061850Y-35610800D01*
X146061850Y-51257200D02*
X154164450Y-51257200D01*
X155274150Y-50630200D02*
G75*
G03*
X155274150Y-50630200I-381000J0D01*
G01*
G04 #@! TO.C,D5*
X121104000Y-57496000D02*
X118164000Y-57496000D01*
X118164000Y-62156000D02*
X121104000Y-62156000D01*
X118164000Y-56716000D02*
X118164000Y-62156000D01*
X121104000Y-57736000D02*
X118164000Y-57736000D01*
X121104000Y-56716000D02*
X118164000Y-56716000D01*
X119634000Y-63176000D02*
X119634000Y-62156000D01*
X121104000Y-57616000D02*
X118164000Y-57616000D01*
X121104000Y-62156000D02*
X121104000Y-56716000D01*
X119634000Y-55696000D02*
X119634000Y-56716000D01*
G04 #@! TO.C,U2*
X127254000Y-82042000D02*
X137414000Y-82042000D01*
X127254000Y-87122000D02*
X137414000Y-87122000D01*
X124714000Y-78232000D02*
X139954000Y-78232000D01*
X139954000Y-78232000D02*
X139954000Y-90932000D01*
X139954000Y-90932000D02*
X124714000Y-90932000D01*
X124714000Y-90932000D02*
X124714000Y-78232000D01*
D13*
G04 #@! TO.C,J8*
X165887000Y-101597750D02*
X168102000Y-101597750D01*
X165887000Y-111497750D02*
X165887000Y-101597750D01*
X178537000Y-111497750D02*
X165887000Y-111497750D01*
X178537000Y-111497750D02*
X178537000Y-101597750D01*
X175262000Y-101313750D02*
X174862000Y-100513750D01*
X174862000Y-100513750D02*
X175662000Y-100513750D01*
X178537000Y-101597750D02*
X176322000Y-101597750D01*
X175662000Y-100513750D02*
X175262000Y-101313750D01*
D12*
G04 #@! TO.C,R6*
X173458000Y-68104000D02*
X173128000Y-68104000D01*
X173128000Y-74644000D02*
X173458000Y-74644000D01*
X173128000Y-68104000D02*
X173128000Y-74644000D01*
X175868000Y-74644000D02*
X175538000Y-74644000D01*
X175538000Y-68104000D02*
X175868000Y-68104000D01*
X175868000Y-68104000D02*
X175868000Y-74644000D01*
G04 #@! TO.C,R8*
X142336000Y-86756000D02*
X144176000Y-86756000D01*
X144176000Y-86756000D02*
X144176000Y-82916000D01*
X142336000Y-82916000D02*
X142336000Y-86756000D01*
X143256000Y-81966000D02*
X143256000Y-82916000D01*
X143256000Y-87706000D02*
X143256000Y-86756000D01*
X144176000Y-82916000D02*
X142336000Y-82916000D01*
G04 #@! TO.C,R1*
X151284000Y-74644000D02*
X151614000Y-74644000D01*
X154024000Y-74644000D02*
X153694000Y-74644000D01*
X151614000Y-68104000D02*
X151284000Y-68104000D01*
X154024000Y-68104000D02*
X154024000Y-74644000D01*
X153694000Y-68104000D02*
X154024000Y-68104000D01*
X151284000Y-68104000D02*
X151284000Y-74644000D01*
G04 #@! TO.C,J12*
X112027550Y-96171000D02*
X112027550Y-111817400D01*
X120130150Y-111817400D02*
X120130150Y-96171000D01*
X112027550Y-111817400D02*
X120130150Y-111817400D01*
X120130150Y-96171000D02*
X112027550Y-96171000D01*
X111679850Y-96798000D02*
G75*
G03*
X111679850Y-96798000I-381000J0D01*
G01*
G04 #@! TO.C,U4*
X223361000Y-45965000D02*
X225901000Y-45965000D01*
X225901000Y-45965000D02*
X225901000Y-94225000D01*
X225901000Y-94225000D02*
X223361000Y-94225000D01*
X223361000Y-94225000D02*
X223361000Y-45965000D01*
G04 #@! TO.C,D4*
X142948000Y-62156000D02*
X142948000Y-56716000D01*
X140008000Y-56716000D02*
X140008000Y-62156000D01*
X142948000Y-57616000D02*
X140008000Y-57616000D01*
X142948000Y-56716000D02*
X140008000Y-56716000D01*
X141478000Y-63176000D02*
X141478000Y-62156000D01*
X141478000Y-55696000D02*
X141478000Y-56716000D01*
X142948000Y-57496000D02*
X140008000Y-57496000D01*
X142948000Y-57736000D02*
X140008000Y-57736000D01*
X140008000Y-62156000D02*
X142948000Y-62156000D01*
D13*
G04 #@! TO.C,Q1*
X146304000Y-53467000D02*
X146050000Y-53721000D01*
X146304000Y-53467000D02*
X149225000Y-53340000D01*
X146050000Y-63119000D02*
X146304000Y-63373000D01*
X149225000Y-63500000D02*
X146304000Y-63373000D01*
X146050000Y-63119000D02*
X146050000Y-53721000D01*
X146913600Y-53924200D02*
G75*
G03*
X146913600Y-53924200I-254000J0D01*
G01*
G36*
X150368000Y-63754000D02*
G01*
X149605081Y-63754000D01*
X149605081Y-53079560D01*
X150368000Y-53079560D01*
X150368000Y-63754000D01*
G37*
D14*
X150368000Y-63754000D02*
X149605081Y-63754000D01*
X149605081Y-53079560D01*
X150368000Y-53079560D01*
X150368000Y-63754000D01*
G36*
X149606000Y-57531000D02*
G01*
X149096040Y-57531000D01*
X149096040Y-56766460D01*
X149606000Y-56766460D01*
X149606000Y-57531000D01*
G37*
X149606000Y-57531000D02*
X149096040Y-57531000D01*
X149096040Y-56766460D01*
X149606000Y-56766460D01*
X149606000Y-57531000D01*
G36*
X149606000Y-63754000D02*
G01*
X149097040Y-63754000D01*
X149097040Y-61851580D01*
X149606000Y-61851580D01*
X149606000Y-63754000D01*
G37*
X149606000Y-63754000D02*
X149097040Y-63754000D01*
X149097040Y-61851580D01*
X149606000Y-61851580D01*
X149606000Y-63754000D01*
G36*
X149606000Y-60071000D02*
G01*
X149097000Y-60071000D01*
X149097000Y-59309697D01*
X149606000Y-59309697D01*
X149606000Y-60071000D01*
G37*
X149606000Y-60071000D02*
X149097000Y-60071000D01*
X149097000Y-59309697D01*
X149606000Y-59309697D01*
X149606000Y-60071000D01*
G36*
X149606000Y-54991000D02*
G01*
X149097350Y-54991000D01*
X149097350Y-53083280D01*
X149606000Y-53083280D01*
X149606000Y-54991000D01*
G37*
X149606000Y-54991000D02*
X149097350Y-54991000D01*
X149097350Y-53083280D01*
X149606000Y-53083280D01*
X149606000Y-54991000D01*
D13*
G04 #@! TO.C,J11*
X193042000Y-101313750D02*
X192642000Y-100513750D01*
X196317000Y-111497750D02*
X196317000Y-101597750D01*
X196317000Y-101597750D02*
X194102000Y-101597750D01*
X193442000Y-100513750D02*
X193042000Y-101313750D01*
X196317000Y-111497750D02*
X183667000Y-111497750D01*
X192642000Y-100513750D02*
X193442000Y-100513750D01*
X183667000Y-101597750D02*
X185882000Y-101597750D01*
X183667000Y-111497750D02*
X183667000Y-101597750D01*
D12*
G04 #@! TO.C,D1*
X154124000Y-57496000D02*
X151184000Y-57496000D01*
X151184000Y-56716000D02*
X151184000Y-62156000D01*
X152654000Y-55696000D02*
X152654000Y-56716000D01*
X154124000Y-57736000D02*
X151184000Y-57736000D01*
X154124000Y-57616000D02*
X151184000Y-57616000D01*
X154124000Y-62156000D02*
X154124000Y-56716000D01*
X154124000Y-56716000D02*
X151184000Y-56716000D01*
X151184000Y-62156000D02*
X154124000Y-62156000D01*
X152654000Y-63176000D02*
X152654000Y-62156000D01*
G04 #@! TO.C,J4*
X143242450Y-35610800D02*
X135139850Y-35610800D01*
X143242450Y-51257200D02*
X143242450Y-35610800D01*
X135139850Y-51257200D02*
X143242450Y-51257200D01*
X135139850Y-35610800D02*
X135139850Y-51257200D01*
X144352150Y-50630200D02*
G75*
G03*
X144352150Y-50630200I-381000J0D01*
G01*
G04 #@! TO.C,D2*
X185420000Y-55696000D02*
X185420000Y-56716000D01*
X186890000Y-57496000D02*
X183950000Y-57496000D01*
X186890000Y-57616000D02*
X183950000Y-57616000D01*
X183950000Y-62156000D02*
X186890000Y-62156000D01*
X186890000Y-62156000D02*
X186890000Y-56716000D01*
X183950000Y-56716000D02*
X183950000Y-62156000D01*
X186890000Y-57736000D02*
X183950000Y-57736000D01*
X186890000Y-56716000D02*
X183950000Y-56716000D01*
X185420000Y-63176000D02*
X185420000Y-62156000D01*
G04 #@! TO.C,J3*
X132320450Y-35610800D02*
X124217850Y-35610800D01*
X124217850Y-35610800D02*
X124217850Y-51257200D01*
X124217850Y-51257200D02*
X132320450Y-51257200D01*
X132320450Y-51257200D02*
X132320450Y-35610800D01*
X133430150Y-50630200D02*
G75*
G03*
X133430150Y-50630200I-381000J0D01*
G01*
D13*
G04 #@! TO.C,Q7*
X156972000Y-53467000D02*
X156718000Y-53721000D01*
X156972000Y-53467000D02*
X159893000Y-53340000D01*
X156718000Y-63119000D02*
X156718000Y-53721000D01*
X156718000Y-63119000D02*
X156972000Y-63373000D01*
X159893000Y-63500000D02*
X156972000Y-63373000D01*
X157581600Y-53924200D02*
G75*
G03*
X157581600Y-53924200I-254000J0D01*
G01*
G36*
X160274000Y-60071000D02*
G01*
X159765000Y-60071000D01*
X159765000Y-59309697D01*
X160274000Y-59309697D01*
X160274000Y-60071000D01*
G37*
D14*
X160274000Y-60071000D02*
X159765000Y-60071000D01*
X159765000Y-59309697D01*
X160274000Y-59309697D01*
X160274000Y-60071000D01*
G36*
X160274000Y-57531000D02*
G01*
X159764040Y-57531000D01*
X159764040Y-56766460D01*
X160274000Y-56766460D01*
X160274000Y-57531000D01*
G37*
X160274000Y-57531000D02*
X159764040Y-57531000D01*
X159764040Y-56766460D01*
X160274000Y-56766460D01*
X160274000Y-57531000D01*
G36*
X160274000Y-54991000D02*
G01*
X159765350Y-54991000D01*
X159765350Y-53083280D01*
X160274000Y-53083280D01*
X160274000Y-54991000D01*
G37*
X160274000Y-54991000D02*
X159765350Y-54991000D01*
X159765350Y-53083280D01*
X160274000Y-53083280D01*
X160274000Y-54991000D01*
G36*
X161036000Y-63754000D02*
G01*
X160273081Y-63754000D01*
X160273081Y-53079560D01*
X161036000Y-53079560D01*
X161036000Y-63754000D01*
G37*
X161036000Y-63754000D02*
X160273081Y-63754000D01*
X160273081Y-53079560D01*
X161036000Y-53079560D01*
X161036000Y-63754000D01*
G36*
X160274000Y-63754000D02*
G01*
X159765040Y-63754000D01*
X159765040Y-61851580D01*
X160274000Y-61851580D01*
X160274000Y-63754000D01*
G37*
X160274000Y-63754000D02*
X159765040Y-63754000D01*
X159765040Y-61851580D01*
X160274000Y-61851580D01*
X160274000Y-63754000D01*
D12*
G04 #@! TO.C,J5*
X121398450Y-35610800D02*
X113295850Y-35610800D01*
X113295850Y-51257200D02*
X121398450Y-51257200D01*
X113295850Y-35610800D02*
X113295850Y-51257200D01*
X121398450Y-51257200D02*
X121398450Y-35610800D01*
X122508150Y-50630200D02*
G75*
G03*
X122508150Y-50630200I-381000J0D01*
G01*
D13*
G04 #@! TO.C,J9*
X160757000Y-101597750D02*
X158542000Y-101597750D01*
X148107000Y-101597750D02*
X150322000Y-101597750D01*
X157082000Y-100513750D02*
X157882000Y-100513750D01*
X160757000Y-111497750D02*
X148107000Y-111497750D01*
X160757000Y-111497750D02*
X160757000Y-101597750D01*
X157482000Y-101313750D02*
X157082000Y-100513750D01*
X157882000Y-100513750D02*
X157482000Y-101313750D01*
X148107000Y-111497750D02*
X148107000Y-101597750D01*
G04 #@! TO.C,Q5*
X113284000Y-53467000D02*
X113030000Y-53721000D01*
X116205000Y-63500000D02*
X113284000Y-63373000D01*
X113030000Y-63119000D02*
X113030000Y-53721000D01*
X113030000Y-63119000D02*
X113284000Y-63373000D01*
X113284000Y-53467000D02*
X116205000Y-53340000D01*
X113893600Y-53924200D02*
G75*
G03*
X113893600Y-53924200I-254000J0D01*
G01*
G36*
X116586000Y-63754000D02*
G01*
X116077040Y-63754000D01*
X116077040Y-61851580D01*
X116586000Y-61851580D01*
X116586000Y-63754000D01*
G37*
D14*
X116586000Y-63754000D02*
X116077040Y-63754000D01*
X116077040Y-61851580D01*
X116586000Y-61851580D01*
X116586000Y-63754000D01*
G36*
X117348000Y-63754000D02*
G01*
X116585081Y-63754000D01*
X116585081Y-53079560D01*
X117348000Y-53079560D01*
X117348000Y-63754000D01*
G37*
X117348000Y-63754000D02*
X116585081Y-63754000D01*
X116585081Y-53079560D01*
X117348000Y-53079560D01*
X117348000Y-63754000D01*
G36*
X116586000Y-60071000D02*
G01*
X116077000Y-60071000D01*
X116077000Y-59309697D01*
X116586000Y-59309697D01*
X116586000Y-60071000D01*
G37*
X116586000Y-60071000D02*
X116077000Y-60071000D01*
X116077000Y-59309697D01*
X116586000Y-59309697D01*
X116586000Y-60071000D01*
G36*
X116586000Y-57531000D02*
G01*
X116076040Y-57531000D01*
X116076040Y-56766460D01*
X116586000Y-56766460D01*
X116586000Y-57531000D01*
G37*
X116586000Y-57531000D02*
X116076040Y-57531000D01*
X116076040Y-56766460D01*
X116586000Y-56766460D01*
X116586000Y-57531000D01*
G36*
X116586000Y-54991000D02*
G01*
X116077350Y-54991000D01*
X116077350Y-53083280D01*
X116586000Y-53083280D01*
X116586000Y-54991000D01*
G37*
X116586000Y-54991000D02*
X116077350Y-54991000D01*
X116077350Y-53083280D01*
X116586000Y-53083280D01*
X116586000Y-54991000D01*
D12*
G04 #@! TO.C,R2*
X186790000Y-74644000D02*
X186460000Y-74644000D01*
X186460000Y-68104000D02*
X186790000Y-68104000D01*
X184050000Y-74644000D02*
X184380000Y-74644000D01*
X186790000Y-68104000D02*
X186790000Y-74644000D01*
X184380000Y-68104000D02*
X184050000Y-68104000D01*
X184050000Y-68104000D02*
X184050000Y-74644000D01*
D13*
G04 #@! TO.C,Q6*
X168148000Y-53467000D02*
X167894000Y-53721000D01*
X167894000Y-63119000D02*
X167894000Y-53721000D01*
X171069000Y-63500000D02*
X168148000Y-63373000D01*
X168148000Y-53467000D02*
X171069000Y-53340000D01*
X167894000Y-63119000D02*
X168148000Y-63373000D01*
X168757600Y-53924200D02*
G75*
G03*
X168757600Y-53924200I-254000J0D01*
G01*
G36*
X171450000Y-60071000D02*
G01*
X170941000Y-60071000D01*
X170941000Y-59309697D01*
X171450000Y-59309697D01*
X171450000Y-60071000D01*
G37*
D14*
X171450000Y-60071000D02*
X170941000Y-60071000D01*
X170941000Y-59309697D01*
X171450000Y-59309697D01*
X171450000Y-60071000D01*
G36*
X172212000Y-63754000D02*
G01*
X171449081Y-63754000D01*
X171449081Y-53079560D01*
X172212000Y-53079560D01*
X172212000Y-63754000D01*
G37*
X172212000Y-63754000D02*
X171449081Y-63754000D01*
X171449081Y-53079560D01*
X172212000Y-53079560D01*
X172212000Y-63754000D01*
G36*
X171450000Y-63754000D02*
G01*
X170941040Y-63754000D01*
X170941040Y-61851580D01*
X171450000Y-61851580D01*
X171450000Y-63754000D01*
G37*
X171450000Y-63754000D02*
X170941040Y-63754000D01*
X170941040Y-61851580D01*
X171450000Y-61851580D01*
X171450000Y-63754000D01*
G36*
X171450000Y-57531000D02*
G01*
X170940040Y-57531000D01*
X170940040Y-56766460D01*
X171450000Y-56766460D01*
X171450000Y-57531000D01*
G37*
X171450000Y-57531000D02*
X170940040Y-57531000D01*
X170940040Y-56766460D01*
X171450000Y-56766460D01*
X171450000Y-57531000D01*
G36*
X171450000Y-54991000D02*
G01*
X170941350Y-54991000D01*
X170941350Y-53083280D01*
X171450000Y-53083280D01*
X171450000Y-54991000D01*
G37*
X171450000Y-54991000D02*
X170941350Y-54991000D01*
X170941350Y-53083280D01*
X171450000Y-53083280D01*
X171450000Y-54991000D01*
D12*
G04 #@! TO.C,R4*
X140438000Y-68104000D02*
X140108000Y-68104000D01*
X142848000Y-74644000D02*
X142518000Y-74644000D01*
X142848000Y-68104000D02*
X142848000Y-74644000D01*
X140108000Y-74644000D02*
X140438000Y-74644000D01*
X142518000Y-68104000D02*
X142848000Y-68104000D01*
X140108000Y-68104000D02*
X140108000Y-74644000D01*
G04 #@! TO.C,R10*
X210962000Y-101758000D02*
X210962000Y-99918000D01*
X211912000Y-100838000D02*
X210962000Y-100838000D01*
X206172000Y-100838000D02*
X207122000Y-100838000D01*
X210962000Y-99918000D02*
X207122000Y-99918000D01*
X207122000Y-99918000D02*
X207122000Y-101758000D01*
X207122000Y-101758000D02*
X210962000Y-101758000D01*
G04 #@! TO.C,R7*
X164692000Y-74644000D02*
X164362000Y-74644000D01*
X164362000Y-68104000D02*
X164692000Y-68104000D01*
X162282000Y-68104000D02*
X161952000Y-68104000D01*
X161952000Y-74644000D02*
X162282000Y-74644000D01*
X164692000Y-68104000D02*
X164692000Y-74644000D01*
X161952000Y-68104000D02*
X161952000Y-74644000D01*
G04 #@! TO.C,R3*
X131926000Y-74644000D02*
X131596000Y-74644000D01*
X129186000Y-68104000D02*
X129186000Y-74644000D01*
X131926000Y-68104000D02*
X131926000Y-74644000D01*
X129516000Y-68104000D02*
X129186000Y-68104000D01*
X129186000Y-74644000D02*
X129516000Y-74644000D01*
X131596000Y-68104000D02*
X131926000Y-68104000D01*
G04 #@! TO.C,U3*
X194913000Y-45965000D02*
X222853000Y-45965000D01*
X222853000Y-45965000D02*
X222853000Y-94225000D01*
X222853000Y-94225000D02*
X194913000Y-94225000D01*
X194913000Y-94225000D02*
X194913000Y-45965000D01*
G04 #@! TO.C,J2*
X186930450Y-35610800D02*
X178827850Y-35610800D01*
X186930450Y-51257200D02*
X186930450Y-35610800D01*
X178827850Y-35610800D02*
X178827850Y-51257200D01*
X178827850Y-51257200D02*
X186930450Y-51257200D01*
X188040150Y-50630200D02*
G75*
G03*
X188040150Y-50630200I-381000J0D01*
G01*
G04 #@! TO.C,D6*
X175968000Y-57496000D02*
X173028000Y-57496000D01*
X175968000Y-62156000D02*
X175968000Y-56716000D01*
X174498000Y-55696000D02*
X174498000Y-56716000D01*
X173028000Y-62156000D02*
X175968000Y-62156000D01*
X175968000Y-56716000D02*
X173028000Y-56716000D01*
X175968000Y-57616000D02*
X173028000Y-57616000D01*
X174498000Y-63176000D02*
X174498000Y-62156000D01*
X173028000Y-56716000D02*
X173028000Y-62156000D01*
X175968000Y-57736000D02*
X173028000Y-57736000D01*
G04 #@! TO.C,R5*
X121004000Y-68104000D02*
X121004000Y-74644000D01*
X118264000Y-68104000D02*
X118264000Y-74644000D01*
X121004000Y-74644000D02*
X120674000Y-74644000D01*
X120674000Y-68104000D02*
X121004000Y-68104000D01*
X118264000Y-74644000D02*
X118594000Y-74644000D01*
X118594000Y-68104000D02*
X118264000Y-68104000D01*
G04 #@! TO.C,D7*
X164792000Y-57616000D02*
X161852000Y-57616000D01*
X161852000Y-56716000D02*
X161852000Y-62156000D01*
X163322000Y-55696000D02*
X163322000Y-56716000D01*
X164792000Y-57496000D02*
X161852000Y-57496000D01*
X161852000Y-62156000D02*
X164792000Y-62156000D01*
X164792000Y-56716000D02*
X161852000Y-56716000D01*
X163322000Y-63176000D02*
X163322000Y-62156000D01*
X164792000Y-57736000D02*
X161852000Y-57736000D01*
X164792000Y-62156000D02*
X164792000Y-56716000D01*
G04 #@! TO.C,J7*
X156983850Y-51257200D02*
X165086450Y-51257200D01*
X165086450Y-35610800D02*
X156983850Y-35610800D01*
X165086450Y-51257200D02*
X165086450Y-35610800D01*
X156983850Y-35610800D02*
X156983850Y-51257200D01*
X166196150Y-50630200D02*
G75*
G03*
X166196150Y-50630200I-381000J0D01*
G01*
G04 #@! TO.C,D8*
X203942000Y-104373000D02*
X203942000Y-107463000D01*
X209492000Y-105918462D02*
G75*
G03*
X203942000Y-104373170I-2990000J462D01*
G01*
X203942000Y-107462830D02*
G75*
G03*
X209492000Y-105917538I2560000J1544830D01*
G01*
X209002000Y-105918000D02*
G75*
G03*
X209002000Y-105918000I-2500000J0D01*
G01*
G04 #@! TO.C,D3*
X129086000Y-62156000D02*
X132026000Y-62156000D01*
X132026000Y-57736000D02*
X129086000Y-57736000D01*
X130556000Y-55696000D02*
X130556000Y-56716000D01*
X132026000Y-62156000D02*
X132026000Y-56716000D01*
X129086000Y-56716000D02*
X129086000Y-62156000D01*
X132026000Y-56716000D02*
X129086000Y-56716000D01*
X130556000Y-63176000D02*
X130556000Y-62156000D01*
X132026000Y-57616000D02*
X129086000Y-57616000D01*
X132026000Y-57496000D02*
X129086000Y-57496000D01*
G04 #@! TO.C,J6*
X167905850Y-51257200D02*
X176008450Y-51257200D01*
X176008450Y-51257200D02*
X176008450Y-35610800D01*
X167905850Y-35610800D02*
X167905850Y-51257200D01*
X176008450Y-35610800D02*
X167905850Y-35610800D01*
X177118150Y-50630200D02*
G75*
G03*
X177118150Y-50630200I-381000J0D01*
G01*
D13*
G04 #@! TO.C,Q4*
X135128000Y-53470220D02*
X138049000Y-53343220D01*
X134874000Y-63122220D02*
X135128000Y-63376220D01*
X134874000Y-63122220D02*
X134874000Y-53724220D01*
X135128000Y-53470220D02*
X134874000Y-53724220D01*
X138049000Y-63503220D02*
X135128000Y-63376220D01*
X135737600Y-53927420D02*
G75*
G03*
X135737600Y-53927420I-254000J0D01*
G01*
G36*
X138430000Y-60074220D02*
G01*
X137921000Y-60074220D01*
X137921000Y-59312917D01*
X138430000Y-59312917D01*
X138430000Y-60074220D01*
G37*
D14*
X138430000Y-60074220D02*
X137921000Y-60074220D01*
X137921000Y-59312917D01*
X138430000Y-59312917D01*
X138430000Y-60074220D01*
G36*
X138430000Y-54994220D02*
G01*
X137921350Y-54994220D01*
X137921350Y-53086500D01*
X138430000Y-53086500D01*
X138430000Y-54994220D01*
G37*
X138430000Y-54994220D02*
X137921350Y-54994220D01*
X137921350Y-53086500D01*
X138430000Y-53086500D01*
X138430000Y-54994220D01*
G36*
X138430000Y-57534220D02*
G01*
X137920040Y-57534220D01*
X137920040Y-56769680D01*
X138430000Y-56769680D01*
X138430000Y-57534220D01*
G37*
X138430000Y-57534220D02*
X137920040Y-57534220D01*
X137920040Y-56769680D01*
X138430000Y-56769680D01*
X138430000Y-57534220D01*
G36*
X139192000Y-63757220D02*
G01*
X138429081Y-63757220D01*
X138429081Y-53082780D01*
X139192000Y-53082780D01*
X139192000Y-63757220D01*
G37*
X139192000Y-63757220D02*
X138429081Y-63757220D01*
X138429081Y-53082780D01*
X139192000Y-53082780D01*
X139192000Y-63757220D01*
G36*
X138430000Y-63757220D02*
G01*
X137921040Y-63757220D01*
X137921040Y-61854800D01*
X138430000Y-61854800D01*
X138430000Y-63757220D01*
G37*
X138430000Y-63757220D02*
X137921040Y-63757220D01*
X137921040Y-61854800D01*
X138430000Y-61854800D01*
X138430000Y-63757220D01*
D13*
G04 #@! TO.C,J10*
X141002000Y-101730000D02*
X143207000Y-101730000D01*
X127557000Y-101730000D02*
X129762000Y-101730000D01*
X127557000Y-101730000D02*
X127557000Y-110630000D01*
X128557000Y-111630000D02*
X142207000Y-111630000D01*
X127557000Y-110630000D02*
X128557000Y-111630000D01*
X143207000Y-110630000D02*
X143207000Y-101730000D01*
X142207000Y-111630000D02*
X143207000Y-110630000D01*
D15*
X143982000Y-102680000D02*
G75*
G03*
X143982000Y-102680000I-100000J0D01*
G01*
D13*
G04 #@! TO.C,Q2*
X179070000Y-53467000D02*
X178816000Y-53721000D01*
X178816000Y-63119000D02*
X178816000Y-53721000D01*
X178816000Y-63119000D02*
X179070000Y-63373000D01*
X181991000Y-63500000D02*
X179070000Y-63373000D01*
X179070000Y-53467000D02*
X181991000Y-53340000D01*
X179679600Y-53924200D02*
G75*
G03*
X179679600Y-53924200I-254000J0D01*
G01*
G36*
X182372000Y-63754000D02*
G01*
X181863040Y-63754000D01*
X181863040Y-61851580D01*
X182372000Y-61851580D01*
X182372000Y-63754000D01*
G37*
D14*
X182372000Y-63754000D02*
X181863040Y-63754000D01*
X181863040Y-61851580D01*
X182372000Y-61851580D01*
X182372000Y-63754000D01*
G36*
X182372000Y-60071000D02*
G01*
X181863000Y-60071000D01*
X181863000Y-59309697D01*
X182372000Y-59309697D01*
X182372000Y-60071000D01*
G37*
X182372000Y-60071000D02*
X181863000Y-60071000D01*
X181863000Y-59309697D01*
X182372000Y-59309697D01*
X182372000Y-60071000D01*
G36*
X183134000Y-63754000D02*
G01*
X182371081Y-63754000D01*
X182371081Y-53079560D01*
X183134000Y-53079560D01*
X183134000Y-63754000D01*
G37*
X183134000Y-63754000D02*
X182371081Y-63754000D01*
X182371081Y-53079560D01*
X183134000Y-53079560D01*
X183134000Y-63754000D01*
G36*
X182372000Y-57531000D02*
G01*
X181862040Y-57531000D01*
X181862040Y-56766460D01*
X182372000Y-56766460D01*
X182372000Y-57531000D01*
G37*
X182372000Y-57531000D02*
X181862040Y-57531000D01*
X181862040Y-56766460D01*
X182372000Y-56766460D01*
X182372000Y-57531000D01*
G36*
X182372000Y-54991000D02*
G01*
X181863350Y-54991000D01*
X181863350Y-53083280D01*
X182372000Y-53083280D01*
X182372000Y-54991000D01*
G37*
X182372000Y-54991000D02*
X181863350Y-54991000D01*
X181863350Y-53083280D01*
X182372000Y-53083280D01*
X182372000Y-54991000D01*
D12*
G04 #@! TO.C,U5*
X147574000Y-78613000D02*
X185674000Y-78613000D01*
X185674000Y-78613000D02*
X185674000Y-90551000D01*
X185674000Y-90551000D02*
X147574000Y-90551000D01*
X147574000Y-90551000D02*
X147574000Y-78613000D01*
G04 #@! TO.C,U6*
X110684000Y-90223000D02*
X118234000Y-90223000D01*
X118234000Y-90223000D02*
X118234000Y-78623000D01*
X118234000Y-78623000D02*
X110684000Y-78623000D01*
X110684000Y-78623000D02*
X110684000Y-90223000D01*
G04 #@! TO.C,U1*
X191865000Y-45965000D02*
X194405000Y-45965000D01*
X194405000Y-45965000D02*
X194405000Y-94225000D01*
X194405000Y-94225000D02*
X191865000Y-94225000D01*
X191865000Y-94225000D02*
X191865000Y-45965000D01*
G04 #@! TD*
M02*
