M48
; DRILL file {KiCad (6.0.8)} date Thu Apr 27 21:46:57 2023
; FORMAT={-:-/ absolute / inch / decimal}
; #@! TF.CreationDate,2023-04-27T21:46:57-06:00
; #@! TF.GenerationSoftware,Kicad,Pcbnew,(6.0.8)
; #@! TF.FileFunction,Plated,1,2,PTH
FMAT,2
INCH
; #@! TA.AperFunction,Plated,PTH,ComponentDrill
T1C0.0276
; #@! TA.AperFunction,Plated,PTH,ComponentDrill
T2C0.0300
; #@! TA.AperFunction,Plated,PTH,ComponentDrill
T3C0.0315
; #@! TA.AperFunction,Plated,PTH,ComponentDrill
T4C0.0354
; #@! TA.AperFunction,Plated,PTH,ComponentDrill
T5C0.0400
; #@! TA.AperFunction,Plated,PTH,ComponentDrill
T6C0.0402
; #@! TA.AperFunction,Plated,PTH,ComponentDrill
T7C0.0421
; #@! TA.AperFunction,Plated,PTH,ComponentDrill
T8C0.0433
; #@! TA.AperFunction,Plated,PTH,ComponentDrill
T9C0.0472
; #@! TA.AperFunction,Plated,PTH,ComponentDrill
T10C0.0690
; #@! TA.AperFunction,Plated,PTH,ComponentDrill
T11C0.1280
%
G90
G05
T1
X5.64Y-3.19
X5.64Y-3.49
X8.08Y-3.97
X8.38Y-3.97
X8.48Y-2.82
X8.48Y-3.12
T2
X4.4423Y-3.2237
X4.4423Y-3.3237
X4.4423Y-3.4237
T3
X4.71Y-2.66
X4.71Y-2.96
X5.14Y-2.66
X5.14Y-2.96
X5.57Y-2.66
X5.57Y-2.96
X6.01Y-2.66
X6.01Y-2.96
X6.43Y-2.66
X6.43Y-2.96
X6.87Y-2.66
X6.87Y-2.96
X7.3Y-2.66
X7.3Y-2.96
T4
X5.86Y-3.18
X5.86Y-3.28
X5.86Y-3.38
X5.86Y-3.48
X8.08Y-4.17
X8.18Y-4.17
T5
X4.52Y-2.2
X4.52Y-2.3
X4.52Y-2.4
X4.95Y-2.2
X4.95Y-2.3
X4.95Y-2.4
X5.38Y-2.2001
X5.38Y-2.3001
X5.38Y-2.4001
X5.82Y-2.2
X5.82Y-2.3
X5.82Y-2.4
X6.24Y-2.2
X6.24Y-2.3
X6.24Y-2.4
X6.68Y-2.2
X6.68Y-2.3
X6.68Y-2.4
X7.11Y-2.2
X7.11Y-2.3
X7.11Y-2.4
T6
X5.9619Y-4.0385
X6.08Y-4.0385
X6.1981Y-4.0385
X6.6619Y-4.0385
X6.78Y-4.0385
X6.8981Y-4.0385
X7.3619Y-4.0385
X7.48Y-4.0385
X7.5981Y-4.0385
X7.6037Y-1.8596
X7.6037Y-1.9596
X7.6037Y-2.0596
X7.6037Y-2.1596
X7.6037Y-2.2596
X7.6037Y-2.3596
X7.6037Y-2.4596
X7.6037Y-2.5596
X7.6037Y-2.6596
X7.6037Y-2.7596
X7.6037Y-2.8596
X7.6037Y-2.9596
X7.6037Y-3.0596
X7.6037Y-3.1596
X7.6037Y-3.2596
X7.6037Y-3.3596
X7.6037Y-3.4596
X7.6037Y-3.5596
X7.6037Y-3.6596
X7.7237Y-1.8596
X7.7237Y-1.9596
X7.7237Y-2.0596
X7.7237Y-2.1596
X7.7237Y-2.2596
X7.7237Y-2.3596
X7.7237Y-2.4596
X7.7237Y-2.5596
X7.7237Y-2.6596
X7.7237Y-2.7596
X7.7237Y-2.8596
X7.7237Y-2.9596
X7.7237Y-3.0596
X7.7237Y-3.1596
X7.7237Y-3.2596
X7.7237Y-3.3596
X7.7237Y-3.4596
X7.7237Y-3.5596
X7.7237Y-3.6596
X8.7237Y-1.8596
X8.7237Y-1.9596
X8.7237Y-2.0596
X8.7237Y-2.1596
X8.7237Y-2.2596
X8.7237Y-2.3596
X8.7237Y-2.4596
X8.7237Y-2.5596
X8.7237Y-2.6596
X8.7237Y-2.7596
X8.7237Y-2.8596
X8.7237Y-2.9596
X8.7237Y-3.0596
X8.7237Y-3.1596
X8.7237Y-3.2596
X8.7237Y-3.3596
X8.7237Y-3.4596
X8.7237Y-3.5596
X8.7237Y-3.6596
X8.8437Y-1.8596
X8.8437Y-1.9596
X8.8437Y-2.0596
X8.8437Y-2.1596
X8.8437Y-2.2596
X8.8437Y-2.3596
X8.8437Y-2.4596
X8.8437Y-2.5596
X8.8437Y-2.6596
X8.8437Y-2.7596
X8.8437Y-2.8596
X8.8437Y-2.9596
X8.8437Y-3.0596
X8.8437Y-3.1596
X8.8437Y-3.2596
X8.8437Y-3.3596
X8.8437Y-3.4596
X8.8437Y-3.5596
X8.8437Y-3.6596
T7
X5.1528Y-4.0437
X5.2709Y-4.0437
X5.3891Y-4.0437
X5.5072Y-4.0437
T8
X4.71Y-2.14
X4.71Y-2.54
X5.14Y-2.14
X5.14Y-2.54
X5.57Y-2.14
X5.57Y-2.54
X6.01Y-2.14
X6.01Y-2.54
X6.43Y-2.14
X6.43Y-2.54
X6.87Y-2.14
X6.87Y-2.54
X7.3Y-2.14
X7.3Y-2.54
T9
X4.96Y-3.23
X4.96Y-3.43
X5.46Y-3.23
X5.46Y-3.43
T10
X4.4921Y-3.87
X4.542Y-1.9343
X4.648Y-3.87
X4.6979Y-1.9343
X4.972Y-1.9343
X5.1279Y-1.9343
X5.402Y-1.9343
X5.5579Y-1.9343
X5.832Y-1.9343
X5.9879Y-1.9343
X6.262Y-1.9343
X6.4179Y-1.9343
X6.692Y-1.9343
X6.8479Y-1.9343
X7.122Y-1.9343
X7.2779Y-1.9343
T11
X4.06Y-1.54
X4.06Y-4.26
X9.01Y-1.54
X9.01Y-4.26
T0
M30
