M48
; DRILL file {KiCad (6.0.8)} date Tue Apr 18 21:35:47 2023
; FORMAT={-:-/ absolute / inch / decimal}
; #@! TF.CreationDate,2023-04-18T21:35:47-06:00
; #@! TF.GenerationSoftware,Kicad,Pcbnew,(6.0.8)
; #@! TF.FileFunction,Plated,1,2,PTH
FMAT,2
INCH
; #@! TA.AperFunction,Plated,PTH,ComponentDrill
T1C0.0276
; #@! TA.AperFunction,Plated,PTH,ComponentDrill
T2C0.0300
; #@! TA.AperFunction,Plated,PTH,ComponentDrill
T3C0.0315
; #@! TA.AperFunction,Plated,PTH,ComponentDrill
T4C0.0354
; #@! TA.AperFunction,Plated,PTH,ComponentDrill
T5C0.0400
; #@! TA.AperFunction,Plated,PTH,ComponentDrill
T6C0.0402
; #@! TA.AperFunction,Plated,PTH,ComponentDrill
T7C0.0421
; #@! TA.AperFunction,Plated,PTH,ComponentDrill
T8C0.0433
; #@! TA.AperFunction,Plated,PTH,ComponentDrill
T9C0.0472
; #@! TA.AperFunction,Plated,PTH,ComponentDrill
T10C0.0690
; #@! TA.AperFunction,Plated,PTH,ComponentDrill
T11C0.1280
%
G90
G05
T1
X6.28Y-3.84
X6.28Y-4.14
T2
X4.9023Y-3.2137
X4.9023Y-3.3137
X4.9023Y-3.4137
T3
X5.14Y-2.66
X5.14Y-2.96
X5.57Y-2.66
X5.57Y-2.96
X6.01Y-2.66
X6.01Y-2.96
X6.43Y-2.66
X6.43Y-2.96
X6.87Y-2.66
X6.87Y-2.96
X7.3Y-2.66
X7.3Y-2.96
T4
X5.86Y-3.18
X5.86Y-3.28
X5.86Y-3.38
X5.86Y-3.48
T5
X4.9513Y-2.2001
X4.9513Y-2.3001
X4.9513Y-2.4001
X5.38Y-2.2
X5.38Y-2.3
X5.38Y-2.4
X5.8213Y-2.2001
X5.8213Y-2.3001
X5.8213Y-2.4001
X6.2413Y-2.2001
X6.2413Y-2.3001
X6.2413Y-2.4001
X6.6813Y-2.2001
X6.6813Y-2.3001
X6.6813Y-2.4001
X7.1113Y-2.2001
X7.1113Y-2.3001
X7.1113Y-2.4001
T6
X7.3938Y-3.97
X7.5119Y-3.97
X7.5234Y-1.8596
X7.5234Y-1.9596
X7.5234Y-2.0596
X7.5234Y-2.1596
X7.5234Y-2.2596
X7.5234Y-2.3596
X7.5234Y-2.4596
X7.5234Y-2.5596
X7.5234Y-2.6596
X7.5234Y-2.7596
X7.5234Y-2.8596
X7.5234Y-2.9596
X7.5234Y-3.0596
X7.5234Y-3.1596
X7.5234Y-3.2596
X7.5234Y-3.3596
X7.5234Y-3.4596
X7.5234Y-3.5596
X7.5234Y-3.6596
X7.63Y-3.97
X7.6537Y-1.8596
X7.6537Y-1.9596
X7.6537Y-2.0596
X7.6537Y-2.1596
X7.6537Y-2.2596
X7.6537Y-2.3596
X7.6537Y-2.4596
X7.6537Y-2.5596
X7.6537Y-2.6596
X7.6537Y-2.7596
X7.6537Y-2.8596
X7.6537Y-2.9596
X7.6537Y-3.0596
X7.6537Y-3.1596
X7.6537Y-3.2596
X7.6537Y-3.3596
X7.6537Y-3.4596
X7.6537Y-3.5596
X7.6537Y-3.6596
X8.0538Y-3.97
X8.1719Y-3.97
X8.29Y-3.97
X8.6537Y-1.8596
X8.6537Y-1.9596
X8.6537Y-2.0596
X8.6537Y-2.1596
X8.6537Y-2.2596
X8.6537Y-2.3596
X8.6537Y-2.4596
X8.6537Y-2.5596
X8.6537Y-2.6596
X8.6537Y-2.7596
X8.6537Y-2.8596
X8.6537Y-2.9596
X8.6537Y-3.0596
X8.6537Y-3.1596
X8.6537Y-3.2596
X8.6537Y-3.3596
X8.6537Y-3.4596
X8.6537Y-3.5596
X8.6537Y-3.6596
X8.7833Y-1.8596
X8.7833Y-1.9596
X8.7833Y-2.0596
X8.7833Y-2.1596
X8.7833Y-2.2596
X8.7833Y-2.3596
X8.7833Y-2.4596
X8.7833Y-2.5596
X8.7833Y-2.6596
X8.7833Y-2.7596
X8.7833Y-2.8596
X8.7833Y-2.9596
X8.7833Y-3.0596
X8.7833Y-3.1596
X8.7833Y-3.2596
X8.7833Y-3.3596
X8.7833Y-3.4596
X8.7833Y-3.5596
X8.7833Y-3.6596
T7
X6.6728Y-4.0137
X6.7909Y-4.0137
X6.9091Y-4.0137
X7.0272Y-4.0137
T8
X5.14Y-2.14
X5.14Y-2.54
X5.57Y-2.14
X5.57Y-2.54
X6.01Y-2.14
X6.01Y-2.54
X6.43Y-2.14
X6.43Y-2.54
X6.87Y-2.14
X6.87Y-2.54
X7.3Y-2.14
X7.3Y-2.54
T9
X5.61Y-3.94
X5.61Y-4.14
X6.11Y-3.94
X6.11Y-4.14
T10
X4.972Y-1.9343
X5.1279Y-1.9343
X5.17Y-3.87
X5.3259Y-3.87
X5.402Y-1.9343
X5.5579Y-1.9343
X5.832Y-1.9343
X5.9879Y-1.9343
X6.262Y-1.9343
X6.4179Y-1.9343
X6.6941Y-1.9343
X6.85Y-1.9343
X7.122Y-1.9343
X7.2779Y-1.9343
T11
X4.69Y-1.54
X4.69Y-4.26
X9.01Y-1.54
X9.01Y-4.26
T0
M30
