G04 #@! TF.GenerationSoftware,KiCad,Pcbnew,(6.0.8)*
G04 #@! TF.CreationDate,2023-04-18T21:27:52-06:00*
G04 #@! TF.ProjectId,Hydro,48796472-6f2e-46b6-9963-61645f706362,rev?*
G04 #@! TF.SameCoordinates,Original*
G04 #@! TF.FileFunction,Soldermask,Bot*
G04 #@! TF.FilePolarity,Negative*
%FSLAX46Y46*%
G04 Gerber Fmt 4.6, Leading zero omitted, Abs format (unit mm)*
G04 Created by KiCad (PCBNEW (6.0.8)) date 2023-04-18 21:27:52*
%MOMM*%
%LPD*%
G01*
G04 APERTURE LIST*
%ADD10C,1.576200*%
%ADD11C,0.836200*%
%ADD12C,0.010000*%
%ADD13C,2.000000*%
%ADD14O,3.048000X1.524000*%
%ADD15C,3.000000*%
%ADD16R,2.200000X2.200000*%
%ADD17O,2.200000X2.200000*%
%ADD18C,2.200000*%
%ADD19C,8.000000*%
%ADD20C,1.600000*%
%ADD21O,1.600000X1.600000*%
%ADD22C,1.400000*%
%ADD23O,1.400000X1.400000*%
%ADD24C,3.050000*%
%ADD25R,1.605000X1.605000*%
%ADD26C,1.605000*%
%ADD27C,1.524000*%
G04 APERTURE END LIST*
D10*
G04 #@! TO.C,J7*
X208354100Y-105158000D02*
G75*
G03*
X208354100Y-105158000I-788100J0D01*
G01*
D11*
X207984100Y-100838000D02*
G75*
G03*
X207984100Y-100838000I-418100J0D01*
G01*
X204984100Y-100838000D02*
G75*
G03*
X204984100Y-100838000I-418100J0D01*
G01*
G36*
X211402200Y-101674200D02*
G01*
X209729800Y-101674200D01*
X209729800Y-100001800D01*
X211402200Y-100001800D01*
X211402200Y-101674200D01*
G37*
D12*
X211402200Y-101674200D02*
X209729800Y-101674200D01*
X209729800Y-100001800D01*
X211402200Y-100001800D01*
X211402200Y-101674200D01*
D10*
G04 #@! TO.C,J8*
X191590100Y-105158000D02*
G75*
G03*
X191590100Y-105158000I-788100J0D01*
G01*
D11*
X191220100Y-100838000D02*
G75*
G03*
X191220100Y-100838000I-418100J0D01*
G01*
X188220100Y-100838000D02*
G75*
G03*
X188220100Y-100838000I-418100J0D01*
G01*
G36*
X194638200Y-101674200D02*
G01*
X192965800Y-101674200D01*
X192965800Y-100001800D01*
X194638200Y-100001800D01*
X194638200Y-101674200D01*
G37*
D12*
X194638200Y-101674200D02*
X192965800Y-101674200D01*
X192965800Y-100001800D01*
X194638200Y-100001800D01*
X194638200Y-101674200D01*
G04 #@! TD*
D13*
G04 #@! TO.C,U4*
X223095000Y-47235000D03*
X223095000Y-49775000D03*
X223095000Y-52315000D03*
X223095000Y-54855000D03*
X223095000Y-57395000D03*
X223095000Y-59935000D03*
X223095000Y-62475000D03*
X223095000Y-65015000D03*
X223095000Y-67555000D03*
X223095000Y-70095000D03*
X223095000Y-72635000D03*
X223095000Y-75175000D03*
X223095000Y-77715000D03*
X223095000Y-80255000D03*
X223095000Y-82795000D03*
X223095000Y-85335000D03*
X223095000Y-87875000D03*
X223095000Y-90415000D03*
X223095000Y-92955000D03*
G04 #@! TD*
G04 #@! TO.C,U1*
X191095000Y-47235000D03*
X191095000Y-49775000D03*
X191095000Y-52315000D03*
X191095000Y-54855000D03*
X191095000Y-57395000D03*
X191095000Y-59935000D03*
X191095000Y-62475000D03*
X191095000Y-65015000D03*
X191095000Y-67555000D03*
X191095000Y-70095000D03*
X191095000Y-72635000D03*
X191095000Y-75175000D03*
X191095000Y-77715000D03*
X191095000Y-80255000D03*
X191095000Y-82795000D03*
X191095000Y-85335000D03*
X191095000Y-87875000D03*
X191095000Y-90415000D03*
X191095000Y-92955000D03*
G04 #@! TD*
G04 #@! TO.C,U3*
X194405000Y-47235000D03*
X194405000Y-49775000D03*
X194405000Y-52315000D03*
X194405000Y-54855000D03*
X194405000Y-57395000D03*
X194405000Y-59935000D03*
X194405000Y-62475000D03*
X194405000Y-65015000D03*
X194405000Y-67555000D03*
X194405000Y-70095000D03*
X194405000Y-72635000D03*
X194405000Y-75175000D03*
X194405000Y-77715000D03*
X194405000Y-80255000D03*
X194405000Y-82795000D03*
X194405000Y-85335000D03*
X194405000Y-87875000D03*
X194405000Y-90415000D03*
X194405000Y-92955000D03*
X219805000Y-47235000D03*
X219805000Y-49775000D03*
X219805000Y-52315000D03*
X219805000Y-54855000D03*
X219805000Y-57395000D03*
X219805000Y-59935000D03*
X219805000Y-62475000D03*
X219805000Y-65015000D03*
X219805000Y-67555000D03*
X219805000Y-70095000D03*
X219805000Y-72635000D03*
X219805000Y-75175000D03*
X219805000Y-77715000D03*
X219805000Y-80255000D03*
X219805000Y-82795000D03*
X219805000Y-85335000D03*
X219805000Y-87875000D03*
X219805000Y-90415000D03*
X219805000Y-92955000D03*
G04 #@! TD*
D14*
G04 #@! TO.C,Q3*
X169705750Y-55883220D03*
X169705750Y-58423220D03*
X169705750Y-60963220D03*
G04 #@! TD*
D15*
G04 #@! TO.C,J1*
X152093151Y-49130200D03*
X148133149Y-49130200D03*
G04 #@! TD*
D16*
G04 #@! TO.C,D5*
X141478000Y-54356000D03*
D17*
X141478000Y-64516000D03*
G04 #@! TD*
D18*
G04 #@! TO.C,U2*
X142494000Y-100076000D03*
X142494000Y-105156000D03*
X155194000Y-100076000D03*
X155194000Y-105156000D03*
G04 #@! TD*
D15*
G04 #@! TO.C,J7*
X207566000Y-105158000D03*
G04 #@! TD*
D19*
G04 #@! TO.C,H4*
X228854000Y-39116000D03*
G04 #@! TD*
D20*
G04 #@! TO.C,R6*
X130556000Y-67564000D03*
D21*
X130556000Y-75184000D03*
G04 #@! TD*
D19*
G04 #@! TO.C,H3*
X119126000Y-39116000D03*
G04 #@! TD*
D22*
G04 #@! TO.C,R7*
X159512000Y-105156000D03*
D23*
X159512000Y-97536000D03*
G04 #@! TD*
D20*
G04 #@! TO.C,R1*
X152654000Y-67564000D03*
D21*
X152654000Y-75184000D03*
G04 #@! TD*
D15*
G04 #@! TO.C,J10*
X131317999Y-98298000D03*
X135278001Y-98298000D03*
G04 #@! TD*
D16*
G04 #@! TO.C,D4*
X185420000Y-54356000D03*
D17*
X185420000Y-64516000D03*
G04 #@! TD*
D14*
G04 #@! TO.C,Q1*
X147861750Y-55883220D03*
X147861750Y-58423220D03*
X147861750Y-60963220D03*
G04 #@! TD*
D16*
G04 #@! TO.C,D1*
X152654000Y-54356000D03*
D17*
X152654000Y-64516000D03*
G04 #@! TD*
D15*
G04 #@! TO.C,J4*
X184859151Y-49130200D03*
X180899149Y-49130200D03*
G04 #@! TD*
D16*
G04 #@! TO.C,D2*
X163322000Y-54356000D03*
D17*
X163322000Y-64516000D03*
G04 #@! TD*
D15*
G04 #@! TO.C,J3*
X173990001Y-49130200D03*
X170029999Y-49130200D03*
G04 #@! TD*
G04 #@! TO.C,J5*
X141171151Y-49130200D03*
X137211149Y-49130200D03*
G04 #@! TD*
G04 #@! TO.C,J8*
X190802000Y-105158000D03*
G04 #@! TD*
D14*
G04 #@! TO.C,Q5*
X136652000Y-55880000D03*
X136652000Y-58420000D03*
X136652000Y-60960000D03*
G04 #@! TD*
D20*
G04 #@! TO.C,R2*
X163322000Y-67564000D03*
D21*
X163322000Y-75184000D03*
G04 #@! TD*
D14*
G04 #@! TO.C,Q6*
X125763750Y-55883220D03*
X125763750Y-58423220D03*
X125763750Y-60963220D03*
G04 #@! TD*
D20*
G04 #@! TO.C,R4*
X185420000Y-67564000D03*
D21*
X185420000Y-75184000D03*
G04 #@! TD*
D20*
G04 #@! TO.C,R3*
X174498000Y-67564000D03*
D21*
X174498000Y-75184000D03*
G04 #@! TD*
D19*
G04 #@! TO.C,H2*
X119126000Y-108204000D03*
G04 #@! TD*
D15*
G04 #@! TO.C,J2*
X163015151Y-49130200D03*
X159055149Y-49130200D03*
G04 #@! TD*
D16*
G04 #@! TO.C,D6*
X130556000Y-54356000D03*
D17*
X130556000Y-64516000D03*
G04 #@! TD*
D20*
G04 #@! TO.C,R5*
X141478000Y-67564000D03*
D21*
X141478000Y-75184000D03*
G04 #@! TD*
D16*
G04 #@! TO.C,D3*
X174498000Y-54356000D03*
D17*
X174498000Y-64516000D03*
G04 #@! TD*
D15*
G04 #@! TO.C,J6*
X130249151Y-49130200D03*
X126289149Y-49130200D03*
G04 #@! TD*
D19*
G04 #@! TO.C,H1*
X228854000Y-108204000D03*
G04 #@! TD*
D14*
G04 #@! TO.C,Q4*
X180627750Y-55883220D03*
X180627750Y-58423220D03*
X180627750Y-60963220D03*
G04 #@! TD*
D24*
G04 #@! TO.C,J9*
X176340000Y-106268000D03*
X171640000Y-106268000D03*
D25*
X178490000Y-101948000D03*
D26*
X175490000Y-101948000D03*
X172490000Y-101948000D03*
X169490000Y-101948000D03*
G04 #@! TD*
D14*
G04 #@! TO.C,Q2*
X158529750Y-55883220D03*
X158529750Y-58423220D03*
X158529750Y-60963220D03*
G04 #@! TD*
D13*
G04 #@! TO.C,U5*
X148844000Y-80772000D03*
X148844000Y-83312000D03*
X148844000Y-85852000D03*
X148844000Y-88392000D03*
G04 #@! TD*
D27*
G04 #@! TO.C,U6*
X124518000Y-81629000D03*
X124518000Y-84169000D03*
X124518000Y-86709000D03*
G04 #@! TD*
M02*
